<svg width="17" height="16" viewBox="0 0 17 16" fill="none" xmlns="http://www.w3.org/2000/svg">
<g id="Add">
<path id="Vector" d="M8.32277 2C8.59173 2 8.81407 2.18801 8.84928 2.43205L8.85416 2.4999L8.85501 7.33333H13.9926C14.286 7.33333 14.5239 7.5572 14.5239 7.83333C14.5239 8.08647 14.324 8.29567 14.0647 8.3288L13.9926 8.33333H8.85501L8.85643 13.1661C8.8565 13.4422 8.61871 13.6662 8.32532 13.6662C8.05637 13.6662 7.83402 13.4782 7.79882 13.2341L7.79393 13.1663L7.79251 8.33333H2.65781C2.3644 8.33333 2.12656 8.10947 2.12656 7.83333C2.12656 7.5802 2.32641 7.371 2.58572 7.33787L2.65781 7.33333H7.79251L7.79166 2.5001C7.79159 2.22396 8.02938 2 8.32277 2Z" fill="#8D99AF"/>
</g>
</svg>
