<svg width="24" height="24" viewBox="0 0 24 24" fill="none" xmlns="http://www.w3.org/2000/svg">
<path d="M18.2221 17C19.6171 18.988 20.2841 20.047 19.8871 20.9C19.8471 20.9853 19.8004 21.0677 19.7471 21.147C19.1721 22 17.6871 22 14.7171 22H9.28311C6.31311 22 4.82911 22 4.25411 21.147C4.20165 21.0681 4.15487 20.9855 4.11411 20.9C3.71711 20.048 4.38411 18.988 5.77911 17M14.5001 9C14.5001 9.66304 14.2367 10.2989 13.7679 10.7678C13.299 11.2366 12.6632 11.5 12.0001 11.5C11.3371 11.5 10.7012 11.2366 10.2323 10.7678C9.76351 10.2989 9.50011 9.66304 9.50011 9C9.50011 8.33696 9.76351 7.70107 10.2323 7.23223C10.7012 6.76339 11.3371 6.5 12.0001 6.5C12.6632 6.5 13.299 6.76339 13.7679 7.23223C14.2367 7.70107 14.5001 8.33696 14.5001 9Z" stroke="#EF233C" stroke-width="1.5" stroke-linecap="round" stroke-linejoin="round"/>
<path d="M13.257 17.494C12.9192 17.819 12.4687 18.0005 12 18.0005C11.5313 18.0005 11.0808 17.819 10.743 17.494C7.65399 14.501 3.51499 11.158 5.53299 6.304C6.62599 3.679 9.24599 2 12 2C14.754 2 17.375 3.68 18.467 6.304C20.483 11.151 16.354 14.511 13.257 17.494Z" stroke="white" stroke-width="1.5" stroke-linecap="round" stroke-linejoin="round"/>
</svg>
