<svg width="25" height="24" viewBox="0 0 25 24" fill="none" xmlns="http://www.w3.org/2000/svg">
<path d="M17.958 12.625C17.967 11.8596 18.17 11.1091 18.5482 10.4436C18.9263 9.77813 19.4671 9.21949 20.12 8.82C19.705 8.22913 19.1588 7.74247 18.5241 7.39824C17.8894 7.054 17.1836 6.86155 16.462 6.836C14.904 6.678 13.422 7.753 12.633 7.753C11.843 7.753 10.624 6.859 9.33299 6.883C8.48475 6.90643 7.65716 7.14992 6.93138 7.5896C6.2056 8.02927 5.60655 8.65003 5.19299 9.391C3.43099 12.451 4.74399 16.984 6.46099 19.467C7.30099 20.681 8.30399 22.048 9.61899 21.999C10.887 21.949 11.365 21.179 12.896 21.179C14.427 21.179 14.858 21.999 16.196 21.974C17.56 21.949 18.425 20.735 19.258 19.517C19.855 18.6408 20.3216 17.6824 20.643 16.672C19.8492 16.3332 19.172 15.7695 18.6948 15.0503C18.2177 14.3312 17.9616 13.488 17.958 12.625ZM15.441 5.193C16.1957 4.30774 16.5695 3.1599 16.481 2C15.3418 2.11085 14.2881 2.65324 13.536 3.516C13.1606 3.93398 12.8733 4.42323 12.691 4.95461C12.5087 5.486 12.4353 6.04863 12.475 6.609C13.0449 6.61668 13.609 6.49293 14.1234 6.24736C14.6377 6.00179 15.0886 5.64101 15.441 5.193Z" fill="black"/>
</svg>
