<svg width="24" height="22" viewBox="0 0 24 22" fill="none" xmlns="http://www.w3.org/2000/svg">
<g id="Garage Filled">
<path id="Vector" fill-rule="evenodd" clip-rule="evenodd" d="M4.34012 8.34632L10.0901 3.45773C10.6164 3.01032 11.296 2.76318 12.0001 2.76318C12.7042 2.76318 13.3838 3.01032 13.91 3.45773L19.66 8.34632C19.9635 8.60429 20.2064 8.9208 20.3727 9.27503C20.539 9.62926 20.625 10.0132 20.6251 10.4015V19.4792H21.5834C21.774 19.4792 21.9569 19.5517 22.0917 19.6806C22.2264 19.8095 22.3022 19.9844 22.3022 20.1667C22.3022 20.3491 22.2264 20.5239 22.0917 20.6529C21.9569 20.7818 21.774 20.8542 21.5834 20.8542H2.41675C2.22612 20.8542 2.04331 20.7818 1.90852 20.6529C1.77372 20.5239 1.698 20.3491 1.698 20.1667C1.698 19.9844 1.77372 19.8095 1.90852 19.6806C2.04331 19.5517 2.22612 19.4792 2.41675 19.4792H3.37508V10.4015C3.37512 10.0132 3.46114 9.62926 3.62748 9.27503C3.79381 8.9208 4.03669 8.60429 4.34012 8.34632ZM9.36467 8.25007C9.36467 8.06773 9.44039 7.89286 9.57518 7.76393C9.70997 7.635 9.89279 7.56257 10.0834 7.56257H13.9167C14.1074 7.56257 14.2902 7.635 14.425 7.76393C14.5598 7.89286 14.6355 8.06773 14.6355 8.25007C14.6355 8.4324 14.5598 8.60727 14.425 8.7362C14.2902 8.86513 14.1074 8.93757 13.9167 8.93757H10.0834C9.89279 8.93757 9.70997 8.86513 9.57518 8.7362C9.44039 8.60727 9.36467 8.4324 9.36467 8.25007ZM13.9666 10.3126C14.8281 10.3126 15.5459 10.3126 16.1152 10.3859C16.717 10.4629 17.2604 10.6334 17.6964 11.0514C18.1334 11.4685 18.3117 11.9882 18.3922 12.5639C18.4688 13.1084 18.4688 13.7959 18.4688 14.6191V19.4792H17.0313V14.6667C17.0313 13.7831 17.0294 13.19 16.9671 12.7463C16.9077 12.3237 16.8052 12.1422 16.6796 12.0231C16.555 11.9039 16.3662 11.8058 15.9245 11.7481C15.4616 11.6894 14.8406 11.6876 13.9167 11.6876H10.0834C9.15958 11.6876 8.53858 11.6894 8.07571 11.749C7.63391 11.8058 7.44417 11.9039 7.31958 12.024C7.195 12.1431 7.09246 12.3237 7.03208 12.7463C6.97075 13.19 6.96883 13.7831 6.96883 14.6667V19.4792H5.53133V14.6191C5.53133 13.7959 5.53133 13.1084 5.608 12.5639C5.6885 11.9882 5.86675 11.4685 6.30279 11.0514C6.73979 10.6334 7.28316 10.4629 7.88404 10.3859C8.45425 10.3126 9.173 10.3126 10.0336 10.3126H13.9666ZM8.40633 14.2084C8.40633 14.0261 8.48206 13.8512 8.61685 13.7223C8.75164 13.5933 8.93446 13.5209 9.12508 13.5209H14.8751C15.0657 13.5209 15.2485 13.5933 15.3833 13.7223C15.5181 13.8512 15.5938 14.0261 15.5938 14.2084C15.5938 14.3907 15.5181 14.5656 15.3833 14.6945C15.2485 14.8235 15.0657 14.8959 14.8751 14.8959H9.12508C8.93446 14.8959 8.75164 14.8235 8.61685 14.6945C8.48206 14.5656 8.40633 14.3907 8.40633 14.2084ZM8.40633 16.9584C8.40633 16.7761 8.48206 16.6012 8.61685 16.4723C8.75164 16.3433 8.93446 16.2709 9.12508 16.2709H14.8751C15.0657 16.2709 15.2485 16.3433 15.3833 16.4723C15.5181 16.6012 15.5938 16.7761 15.5938 16.9584C15.5938 17.1407 15.5181 17.3156 15.3833 17.4445C15.2485 17.5735 15.0657 17.6459 14.8751 17.6459H9.12508C8.93446 17.6459 8.75164 17.5735 8.61685 17.4445C8.48206 17.3156 8.40633 17.1407 8.40633 16.9584Z" fill="#EF233C"/>
</g>
</svg>
