<svg width="24" height="22" viewBox="0 0 24 22" fill="none" xmlns="http://www.w3.org/2000/svg">
<g id="Cart filled">
<path id="Vector" d="M2.89587 3.896C2.89587 3.5163 3.21767 3.2085 3.61462 3.2085H4.14962C5.06049 3.2085 5.60587 3.79424 5.91774 4.33874C6.12561 4.70169 6.27599 5.12266 6.39362 5.50378C6.42547 5.50139 6.45775 5.50016 6.49039 5.50016H18.467C19.2626 5.50016 19.8371 6.22838 19.619 6.96023L17.8673 12.8352C17.5446 13.9181 16.5101 14.6648 15.333 14.6648H9.63274C8.44585 14.6648 7.40541 13.9059 7.09129 12.8111L6.36249 10.271L5.15633 6.37629L5.15438 6.36947C5.00517 5.84896 4.86512 5.36271 4.65703 4.99939C4.45495 4.64656 4.29386 4.5835 4.14962 4.5835H3.61462C3.21767 4.5835 2.89587 4.27569 2.89587 3.896ZM9.12504 19.2502C10.1836 19.2502 11.0417 18.4294 11.0417 17.4168C11.0417 16.4043 10.1836 15.5835 9.12504 15.5835C8.06649 15.5835 7.20837 16.4043 7.20837 17.4168C7.20837 18.4294 8.06649 19.2502 9.12504 19.2502ZM15.8334 19.2502C16.8919 19.2502 17.75 18.4294 17.75 17.4168C17.75 16.4043 16.8919 15.5835 15.8334 15.5835C14.7748 15.5835 13.9167 16.4043 13.9167 17.4168C13.9167 18.4294 14.7748 19.2502 15.8334 19.2502Z" fill="#EF233C"/>
</g>
</svg>
