<svg width="24" height="22" viewBox="0 0 24 22" fill="none" xmlns="http://www.w3.org/2000/svg">
<g id="Profile filled">
<path id="Vector" fill-rule="evenodd" clip-rule="evenodd" d="M8.16667 6.41667C8.16667 5.44421 8.57053 4.51157 9.28942 3.82394C10.0083 3.13631 10.9833 2.75 12 2.75C13.0167 2.75 13.9917 3.13631 14.7106 3.82394C15.4295 4.51157 15.8333 5.44421 15.8333 6.41667C15.8333 7.38913 15.4295 8.32176 14.7106 9.00939C13.9917 9.69703 13.0167 10.0833 12 10.0833C10.9833 10.0833 10.0083 9.69703 9.28942 9.00939C8.57053 8.32176 8.16667 7.38913 8.16667 6.41667ZM8.16667 11.9167C6.89584 11.9167 5.67706 12.3996 4.77845 13.2591C3.87983 14.1186 3.375 15.2844 3.375 16.5C3.375 17.2293 3.6779 17.9288 4.21707 18.4445C4.75624 18.9603 5.4875 19.25 6.25 19.25H17.75C18.5125 19.25 19.2438 18.9603 19.7829 18.4445C20.3221 17.9288 20.625 17.2293 20.625 16.5C20.625 15.2844 20.1202 14.1186 19.2216 13.2591C18.3229 12.3996 17.1042 11.9167 15.8333 11.9167H8.16667Z" fill="#EF233C"/>
</g>
</svg>
