<svg width="23" height="22" viewBox="0 0 23 22" fill="none" xmlns="http://www.w3.org/2000/svg">
<g id="Home filled">
<path id="Vector" d="M12.8903 2.322C12.0873 1.67392 10.9127 1.67392 10.1097 2.322L3.64086 7.542C3.15523 7.93388 2.875 8.51068 2.875 9.11843V17.6481C2.875 18.5341 3.62585 19.2523 4.55208 19.2523H7.42708C8.35331 19.2523 9.10417 18.5341 9.10417 17.6481V13.9791C9.10417 13.3564 9.62339 12.8498 10.2704 12.8336H12.7296C13.3766 12.8498 13.8958 13.3564 13.8958 13.9791V17.6481C13.8958 18.5341 14.6467 19.2523 15.5729 19.2523H18.4479C19.3741 19.2523 20.125 18.5341 20.125 17.6481V9.11843C20.125 8.51068 19.8448 7.93388 19.3591 7.542L12.8903 2.322Z" fill="#EF233C"/>
</g>
</svg>
