<svg width="25" height="24" viewBox="0 0 25 24" fill="none" xmlns="http://www.w3.org/2000/svg">
<g id="Garage outline">
<path id="Vector" fill-rule="evenodd" clip-rule="evenodd" d="M13.995 4.33205C13.5831 3.96585 13.0511 3.76356 12.5 3.76356C11.9489 3.76356 11.4169 3.96585 11.005 4.33205L5.005 9.66605C4.76764 9.87709 4.57764 10.136 4.44751 10.4257C4.31739 10.7154 4.25007 11.0294 4.25 11.3471V21.2501H5.75V15.9481C5.75 15.0501 5.75 14.3001 5.83 13.7061C5.914 13.0781 6.1 12.5111 6.555 12.0561C7.011 11.6001 7.578 11.4141 8.205 11.3301C8.8 11.2501 9.55 11.2501 10.448 11.2501H14.552C15.451 11.2501 16.2 11.2501 16.794 11.3301C17.422 11.4141 17.989 11.6001 18.444 12.0561C18.9 12.5111 19.086 13.0781 19.17 13.7061C19.25 14.3001 19.25 15.0501 19.25 15.9481V21.2501H20.75V11.3471C20.7499 11.0294 20.6826 10.7154 20.5525 10.4257C20.4224 10.136 20.2324 9.87709 19.995 9.66605L13.995 4.33205ZM22.25 21.2501V11.3471C22.25 10.8174 22.1378 10.2938 21.9208 9.81068C21.7038 9.32755 21.3869 8.89586 20.991 8.54405L14.991 3.21105C14.3046 2.60108 13.4183 2.26416 12.5 2.26416C11.5817 2.26416 10.6954 2.60108 10.009 3.21105L4.009 8.54405C3.61311 8.89586 3.29623 9.32755 3.07922 9.81068C2.86222 10.2938 2.75002 10.8174 2.75 11.3471V21.2501H2.5C2.30109 21.2501 2.11032 21.3291 1.96967 21.4697C1.82902 21.6104 1.75 21.8011 1.75 22.0001C1.75 22.199 1.82902 22.3897 1.96967 22.5304C2.11032 22.671 2.30109 22.7501 2.5 22.7501H22.5C22.6989 22.7501 22.8897 22.671 23.0303 22.5304C23.171 22.3897 23.25 22.199 23.25 22.0001C23.25 21.8011 23.171 21.6104 23.0303 21.4697C22.8897 21.3291 22.6989 21.2501 22.5 21.2501H22.25ZM17.75 21.2501V16.0001C17.75 15.0361 17.748 14.3891 17.683 13.9051C17.621 13.4441 17.514 13.2461 17.383 13.1161C17.253 12.9861 17.056 12.8791 16.595 12.8161C16.112 12.7521 15.464 12.7501 14.5 12.7501H10.5C9.536 12.7501 8.888 12.7521 8.405 12.8171C7.944 12.8791 7.746 12.9861 7.616 13.1171C7.486 13.2471 7.379 13.4441 7.316 13.9051C7.252 14.3891 7.25 15.0361 7.25 16.0001V21.2501H17.75ZM9.75 9.00005C9.75 8.80114 9.82902 8.61037 9.96967 8.46972C10.1103 8.32907 10.3011 8.25005 10.5 8.25005H14.5C14.6989 8.25005 14.8897 8.32907 15.0303 8.46972C15.171 8.61037 15.25 8.80114 15.25 9.00005C15.25 9.19896 15.171 9.38973 15.0303 9.53038C14.8897 9.67103 14.6989 9.75005 14.5 9.75005H10.5C10.3011 9.75005 10.1103 9.67103 9.96967 9.53038C9.82902 9.38973 9.75 9.19896 9.75 9.00005ZM8.75 15.5001C8.75 15.3011 8.82902 15.1104 8.96967 14.9697C9.11032 14.8291 9.30109 14.7501 9.5 14.7501H15.5C15.6989 14.7501 15.8897 14.8291 16.0303 14.9697C16.171 15.1104 16.25 15.3011 16.25 15.5001C16.25 15.699 16.171 15.8897 16.0303 16.0304C15.8897 16.171 15.6989 16.2501 15.5 16.2501H9.5C9.30109 16.2501 9.11032 16.171 8.96967 16.0304C8.82902 15.8897 8.75 15.699 8.75 15.5001ZM8.75 18.5001C8.75 18.3011 8.82902 18.1104 8.96967 17.9697C9.11032 17.8291 9.30109 17.7501 9.5 17.7501H15.5C15.6989 17.7501 15.8897 17.8291 16.0303 17.9697C16.171 18.1104 16.25 18.3011 16.25 18.5001C16.25 18.699 16.171 18.8897 16.0303 19.0304C15.8897 19.171 15.6989 19.2501 15.5 19.2501H9.5C9.30109 19.2501 9.11032 19.171 8.96967 19.0304C8.82902 18.8897 8.75 18.699 8.75 18.5001Z" fill="#DFE2E7"/>
</g>
</svg>
