<svg width="25" height="24" viewBox="0 0 25 24" fill="none" xmlns="http://www.w3.org/2000/svg">
<g id="Cart outline">
<path id="Vector" d="M3 4.25C3 3.83579 3.33579 3.5 3.75 3.5H4.30826C5.25873 3.5 5.82782 4.13899 6.15325 4.73299C6.37016 5.12894 6.52708 5.58818 6.64982 6.00395C6.68306 6.00134 6.71674 6 6.7508 6H19.2481C20.0783 6 20.6778 6.79442 20.4502 7.5928L18.6224 14.0019C18.2856 15.1832 17.2062 15.9978 15.9779 15.9978H10.0298C8.79128 15.9978 7.7056 15.1699 7.37783 13.9756L6.61734 11.2045L5.35874 6.95578L5.3567 6.94834C5.201 6.38051 5.05487 5.85005 4.83773 5.4537C4.62686 5.0688 4.45877 5 4.30826 5H3.75C3.33579 5 3 4.66421 3 4.25ZM8.07283 10.8403L8.82434 13.5786C8.97333 14.1215 9.46682 14.4978 10.0298 14.4978H15.9779C16.5362 14.4978 17.0268 14.1275 17.18 13.5906L18.9168 7.5H7.08549L8.05906 10.7868C8.06434 10.8046 8.06892 10.8224 8.07283 10.8403ZM11.5 19C11.5 20.1046 10.6046 21 9.5 21C8.39543 21 7.5 20.1046 7.5 19C7.5 17.8954 8.39543 17 9.5 17C10.6046 17 11.5 17.8954 11.5 19ZM10 19C10 18.7239 9.77614 18.5 9.5 18.5C9.22386 18.5 9 18.7239 9 19C9 19.2761 9.22386 19.5 9.5 19.5C9.77614 19.5 10 19.2761 10 19ZM18.5 19C18.5 20.1046 17.6046 21 16.5 21C15.3954 21 14.5 20.1046 14.5 19C14.5 17.8954 15.3954 17 16.5 17C17.6046 17 18.5 17.8954 18.5 19ZM17 19C17 18.7239 16.7761 18.5 16.5 18.5C16.2239 18.5 16 18.7239 16 19C16 19.2761 16.2239 19.5 16.5 19.5C16.7761 19.5 17 19.2761 17 19Z" fill="#DFE2E7"/>
</g>
</svg>
