<svg width="12" height="12" viewBox="0 0 12 12" fill="none" xmlns="http://www.w3.org/2000/svg">
<path d="M1.25 2.125C1.25 1.9179 1.4179 1.75 1.625 1.75H1.90413C2.37936 1.75 2.66391 2.06949 2.82663 2.36649C2.93508 2.56447 3.01354 2.79409 3.07491 3.00198C3.09153 3.00067 3.10837 3 3.1254 3H9.37405C9.78915 3 10.0889 3.39721 9.9751 3.7964L9.0612 7.00095C8.8928 7.5916 8.3531 7.9989 7.73895 7.9989H4.76488C4.14564 7.9989 3.6028 7.58495 3.43892 6.9878L3.05867 5.60225L2.42937 3.47789L2.42835 3.47417C2.3505 3.19025 2.27743 2.92503 2.16886 2.72685C2.06343 2.5344 1.97938 2.5 1.90413 2.5H1.625C1.4179 2.5 1.25 2.3321 1.25 2.125ZM3.78642 5.42015L4.16217 6.7893C4.23666 7.06075 4.48341 7.2489 4.76488 7.2489H7.73895C8.0181 7.2489 8.2634 7.06375 8.34 6.7953L9.2084 3.75H3.29275L3.77953 5.3934C3.78217 5.4023 3.78446 5.4112 3.78642 5.42015ZM5.5 9.5C5.5 10.0523 5.0523 10.5 4.5 10.5C3.94771 10.5 3.5 10.0523 3.5 9.5C3.5 8.9477 3.94771 8.5 4.5 8.5C5.0523 8.5 5.5 8.9477 5.5 9.5ZM4.75 9.5C4.75 9.36195 4.63807 9.25 4.5 9.25C4.36193 9.25 4.25 9.36195 4.25 9.5C4.25 9.63805 4.36193 9.75 4.5 9.75C4.63807 9.75 4.75 9.63805 4.75 9.5ZM9 9.5C9 10.0523 8.5523 10.5 8 10.5C7.4477 10.5 7 10.0523 7 9.5C7 8.9477 7.4477 8.5 8 8.5C8.5523 8.5 9 8.9477 9 9.5ZM8.25 9.5C8.25 9.36195 8.13805 9.25 8 9.25C7.86195 9.25 7.75 9.36195 7.75 9.5C7.75 9.63805 7.86195 9.75 8 9.75C8.13805 9.75 8.25 9.63805 8.25 9.5Z" fill="white"/>
</svg>
