<svg width="25" height="24" viewBox="0 0 25 24" fill="none" xmlns="http://www.w3.org/2000/svg">
<path d="M8.5 13.5V7C8.5 6.46957 8.71071 5.96086 9.08579 5.58579C9.46086 5.21071 9.96957 5 10.5 5H20.5C21.0304 5 21.5391 5.21071 21.9142 5.58579C22.2893 5.96086 22.5 6.46957 22.5 7V13C22.5 13.5304 22.2893 14.0391 21.9142 14.4142C21.5391 14.7893 21.0304 15 20.5 15H14" stroke="white" stroke-width="1.5"/>
<path d="M20 10.01L20.01 9.999M11 10.01L11.01 9.999M15.5 12C14.9696 12 14.4609 11.7893 14.0858 11.4142C13.7107 11.0391 13.5 10.5304 13.5 10C13.5 9.46957 13.7107 8.96086 14.0858 8.58579C14.4609 8.21071 14.9696 8 15.5 8C16.0304 8 16.5391 8.21071 16.9142 8.58579C17.2893 8.96086 17.5 9.46957 17.5 10C17.5 10.5304 17.2893 11.0391 16.9142 11.4142C16.5391 11.7893 16.0304 12 15.5 12Z" stroke="#EF233C" stroke-width="1.5" stroke-linecap="round" stroke-linejoin="round"/>
<path d="M2.5 11L5.307 7.843C5.68228 7.42068 6.14276 7.08266 6.65812 6.85117C7.17348 6.61969 7.73204 6.50001 8.297 6.5H8.5M2.5 19.5H6C7.29822 19.5 8.56142 19.0789 9.6 18.3L12 16.5C12 16.5 12.81 15.953 14 15C16.5 13 14 9.834 11.5 11.5C9.464 12.857 7.5 14 7.5 14" stroke="white" stroke-width="1.5" stroke-linecap="round" stroke-linejoin="round"/>
</svg>
