<svg width="23" height="23" viewBox="0 0 23 23" fill="none" xmlns="http://www.w3.org/2000/svg">
<g id="Group">
<path id="Vector" d="M18.1248 11.2159C18.2593 11.3556 18.3344 11.542 18.3344 11.736C18.3344 11.93 18.2593 12.1164 18.1248 12.2561L14.2908 16.2409C13.822 16.7276 13 16.3961 13 15.7211V13.4239C13 13.3741 12.9802 13.3264 12.9451 13.2913C12.9099 13.2561 12.8622 13.2364 12.8125 13.2364H5.5C5.30109 13.2364 5.11032 13.1574 4.96967 13.0167C4.82902 12.876 4.75 12.6853 4.75 12.4864V10.9864C4.75 10.7875 4.82902 10.5967 4.96967 10.456C5.11032 10.3154 5.30109 10.2364 5.5 10.2364H12.8125C12.8622 10.2364 12.9099 10.2166 12.9451 10.1815C12.9802 10.1463 13 10.0986 13 10.0489V7.75162C13 7.07662 13.822 6.74512 14.29 7.23187L18.1248 11.2159Z" fill="white"/>
<path id="Vector_2" d="M4 0.25C3.50754 0.25 3.01991 0.346997 2.56494 0.535452C2.10997 0.723907 1.69657 1.00013 1.34835 1.34835C0.645088 2.05161 0.25 3.00544 0.25 4V19C0.25 19.9946 0.645088 20.9484 1.34835 21.6516C1.69657 21.9999 2.10997 22.2761 2.56494 22.4645C3.01991 22.653 3.50754 22.75 4 22.75H19C19.9946 22.75 20.9484 22.3549 21.6516 21.6516C22.3549 20.9484 22.75 19.9946 22.75 19V4C22.75 3.50754 22.653 3.01991 22.4645 2.56494C22.2761 2.10997 21.9999 1.69657 21.6516 1.34835C21.3034 1.00013 20.89 0.723907 20.4351 0.535452C19.9801 0.346997 19.4925 0.25 19 0.25H4ZM1.75 4C1.75 3.40326 1.98705 2.83097 2.40901 2.40901C2.83097 1.98705 3.40326 1.75 4 1.75H19C19.5967 1.75 20.169 1.98705 20.591 2.40901C21.0129 2.83097 21.25 3.40326 21.25 4V19C21.25 19.5967 21.0129 20.169 20.591 20.591C20.169 21.0129 19.5967 21.25 19 21.25H4C3.40326 21.25 2.83097 21.0129 2.40901 20.591C1.98705 20.169 1.75 19.5967 1.75 19V4Z" fill="white"/>
</g>
</svg>
