<svg width="14" height="14" viewBox="0 0 14 14" fill="none" xmlns="http://www.w3.org/2000/svg">
<g id="Checkmark">
<path id="Vector" d="M5.73758 1.18649C5.80321 1.20882 5.86734 1.23538 5.92952 1.266L6.67782 1.6344C6.88088 1.73438 7.11888 1.73438 7.32194 1.6344L8.07024 1.266C8.86503 0.874661 9.82666 1.20177 10.218 1.99661L10.2608 2.0913L10.2975 2.18857L10.5661 2.97817C10.639 3.19247 10.8073 3.36076 11.0216 3.43366L11.8112 3.70226C12.6499 3.98758 13.0986 4.89883 12.8133 5.73758C12.7909 5.80321 12.7644 5.86734 12.7338 5.92952L12.3653 6.67782C12.2653 6.88088 12.2653 7.11888 12.3653 7.32194L12.7338 8.07024C13.1251 8.86503 12.798 9.82666 12.0031 10.218C11.9409 10.2486 11.8768 10.2752 11.8112 10.2975L11.0216 10.5661C10.8073 10.639 10.639 10.8073 10.5661 11.0216L10.2975 11.8112C10.0122 12.6499 9.10093 13.0986 8.26216 12.8133C8.19653 12.7909 8.13242 12.7644 8.07024 12.7338L7.32194 12.3653C7.11888 12.2653 6.88088 12.2653 6.67782 12.3653L5.92952 12.7338C5.13469 13.1251 4.1731 12.798 3.78177 12.0031C3.75114 11.9409 3.72458 11.8768 3.70226 11.8112L3.43366 11.0216C3.36076 10.8073 3.19247 10.639 2.97817 10.5661L2.18857 10.2975C1.34981 10.0122 0.901167 9.10093 1.18649 8.26216C1.20882 8.19653 1.23538 8.13242 1.266 8.07024L1.6344 7.32194C1.73438 7.11888 1.73438 6.88088 1.6344 6.67782L1.266 5.92952C0.874661 5.13469 1.20177 4.1731 1.99661 3.78177C2.05881 3.75114 2.12293 3.72458 2.18857 3.70226L2.97817 3.43366C3.19247 3.36076 3.36076 3.19247 3.43366 2.97817L3.70226 2.18857C3.98758 1.34981 4.89883 0.901167 5.73758 1.18649ZM4.53064 2.47036L4.26204 3.25996C4.10166 3.73142 3.73142 4.10166 3.25996 4.26204L2.47036 4.53064C2.44053 4.54079 2.41138 4.55286 2.38311 4.56678C2.02181 4.74466 1.87313 5.18174 2.05101 5.54304L2.41941 6.29131C2.63938 6.73808 2.63938 7.26168 2.41941 7.70846L2.05101 8.4567C2.03709 8.48499 2.02502 8.51416 2.01487 8.54397C1.88517 8.92523 2.08911 9.3394 2.47036 9.46913L3.25996 9.7377C3.73142 9.89812 4.10166 10.2684 4.26204 10.7398L4.53064 11.5294C4.54079 11.5592 4.55286 11.5884 4.56678 11.6166C4.74466 11.9779 5.18174 12.1266 5.54304 11.9488L6.29131 11.5803C6.73808 11.3604 7.26168 11.3604 7.70846 11.5803L8.4567 11.9488C8.48499 11.9626 8.51416 11.9747 8.54397 11.9849C8.92523 12.1145 9.3394 11.9106 9.46913 11.5294L9.7377 10.7398C9.89812 10.2684 10.2684 9.89812 10.7398 9.7377L11.5294 9.46913C11.5592 9.45898 11.5884 9.44691 11.6166 9.43297C11.9779 9.25511 12.1266 8.81802 11.9488 8.4567L11.5803 7.70846C11.3604 7.26168 11.3604 6.73808 11.5803 6.29131L11.9488 5.54304C11.9626 5.51477 11.9747 5.48562 11.9849 5.45579C12.1145 5.07453 11.9106 4.66033 11.5294 4.53064L10.7398 4.26204C10.2684 4.10166 9.89812 3.73142 9.7377 3.25996L9.46913 2.47036L9.45245 2.42615L9.43297 2.38311L9.39668 2.31789C9.20074 2.00451 8.79544 1.88425 8.4567 2.05101L7.70846 2.41941C7.26168 2.63938 6.73808 2.63938 6.29131 2.41941L5.54304 2.05101C5.51477 2.03709 5.48562 2.02502 5.45579 2.01487C5.07453 1.88517 4.66033 2.08911 4.53064 2.47036ZM5.86262 8.39341L9.02387 5.23218C9.19473 5.06133 9.4717 5.06133 9.64256 5.23218C9.7979 5.38751 9.81201 5.63056 9.68491 5.80183L9.64256 5.85089L6.14256 9.35089C5.97584 9.51766 5.7108 9.52017 5.54094 9.36717L5.49711 9.32161L4.03878 7.57161C3.88409 7.38599 3.90917 7.11013 4.09479 6.95543C4.26354 6.81485 4.50687 6.82278 4.66594 6.96482L4.71097 7.01149L5.86262 8.39341Z" fill="#8D99AF"/>
</g>
</svg>
