<svg width="10" height="12" viewBox="0 0 10 12" fill="none" xmlns="http://www.w3.org/2000/svg">
<g id="Group">
<path id="Vector (Stroke)" fill-rule="evenodd" clip-rule="evenodd" d="M3.40411 2.92659C3.03717 2.97594 2.84298 3.06619 2.70482 3.20451C2.5665 3.34268 2.47594 3.53717 2.42659 3.90411C2.3758 4.2818 2.375 4.7824 2.375 5.5V8C2.375 8.7176 2.3758 9.2182 2.42659 9.59589C2.47594 9.96283 2.56619 10.157 2.70451 10.2952C2.84268 10.4335 3.03717 10.5241 3.40411 10.5734C3.7818 10.6242 4.2824 10.625 5 10.625H6.5C7.2176 10.625 7.7182 10.6242 8.09589 10.5734C8.46283 10.5241 8.65702 10.4338 8.79518 10.2955C8.9335 10.1573 9.02406 9.96283 9.07341 9.59589C9.1242 9.2182 9.125 8.7176 9.125 8V5.5C9.125 4.7824 9.1242 4.2818 9.07341 3.90411C9.02406 3.53717 8.93381 3.34298 8.79549 3.20482C8.65732 3.0665 8.46283 2.97594 8.09589 2.92659C7.7182 2.8758 7.2176 2.875 6.5 2.875H5C4.2824 2.875 3.7818 2.8758 3.40411 2.92659ZM4.97256 2.125H6.52744C7.21113 2.12499 7.76234 2.12498 8.19586 2.18328C8.64584 2.2438 9.02485 2.37326 9.32566 2.67434C9.62674 2.97515 9.7562 3.35416 9.81672 3.80414C9.87502 4.23766 9.87501 4.78887 9.875 5.47256V8.02744C9.87501 8.71113 9.87502 9.26234 9.81672 9.69586C9.75619 10.1459 9.62669 10.525 9.32551 10.8258C9.02473 11.1268 8.64577 11.2562 8.19586 11.3167C7.76234 11.375 7.21114 11.375 6.52745 11.375H4.97255C4.28887 11.375 3.73766 11.375 3.30414 11.3167C2.85423 11.2562 2.47527 11.1268 2.17449 10.8258C1.87331 10.525 1.74381 10.1459 1.68328 9.69586C1.62498 9.26234 1.62499 8.71113 1.625 8.02744V5.47256C1.62499 4.78887 1.62498 4.23766 1.68328 3.80414C1.7438 3.35416 1.87326 2.97515 2.17434 2.67434C2.47515 2.37326 2.85416 2.2438 3.30414 2.18328C3.73766 2.12498 4.28887 2.12499 4.97256 2.125Z" fill="#EF233C"/>
<path id="Vector (Stroke)_2" fill-rule="evenodd" clip-rule="evenodd" d="M2.35549 1.4449C1.85245 1.51256 1.56272 1.63943 1.35128 1.85105C1.13966 2.06249 1.01256 2.35245 0.944904 2.85549C0.875797 3.3693 0.875 4.04665 0.875 5V8C0.875 8.29837 0.993527 8.58452 1.20451 8.7955C1.41548 9.00647 1.70163 9.125 2 9.125V9.875C1.50272 9.875 1.02581 9.67746 0.674175 9.32583C0.322544 8.97419 0.125 8.49728 0.125 8L0.125 4.97178C0.124992 4.05297 0.124986 3.32513 0.201597 2.75551C0.280432 2.16936 0.446535 1.69488 0.820835 1.32084C1.19488 0.946535 1.66936 0.780432 2.25551 0.701597C2.82513 0.624986 3.55297 0.624992 4.47178 0.625L6.5 0.625C6.99728 0.625 7.4742 0.822544 7.82583 1.17418C8.17746 1.52581 8.375 2.00272 8.375 2.5H7.625C7.625 2.20163 7.50647 1.91548 7.2955 1.70451C7.08452 1.49353 6.79837 1.375 6.5 1.375H4.5C3.54665 1.375 2.8693 1.3758 2.35549 1.4449Z" fill="#EF233C"/>
</g>
</svg>
