<svg width="12" height="11" viewBox="0 0 12 11" fill="none" xmlns="http://www.w3.org/2000/svg">
<path d="M9.20832 1.83325C9.55904 1.83323 9.89652 1.96723 10.1517 2.20784C10.4069 2.44845 10.5605 2.77747 10.581 3.12759L10.5833 3.20825V4.04104C10.5823 4.16483 10.5489 4.2862 10.4865 4.39313C10.4242 4.50005 10.3349 4.58881 10.2277 4.65063L10.1786 4.67721C10.0303 4.74999 9.90447 4.86149 9.81433 4.99992C9.7242 5.13835 9.67315 5.29856 9.66658 5.46361C9.66 5.62867 9.69815 5.79243 9.77699 5.93759C9.85582 6.08275 9.97242 6.20391 10.1144 6.28825L10.1786 6.32263C10.3771 6.42071 10.5544 6.62329 10.5801 6.89096L10.5833 6.95879V7.79159C10.5833 8.14231 10.4493 8.47978 10.2087 8.73495C9.96813 8.99013 9.63911 9.14372 9.28899 9.16429L9.20832 9.16659H2.79166C2.44093 9.1666 2.10346 9.0326 1.84829 8.792C1.59311 8.55139 1.43952 8.22237 1.41895 7.87225L1.41666 7.79159V6.95879C1.41666 6.68104 1.57799 6.46471 1.77232 6.34921L1.82136 6.32263C1.96965 6.24984 2.09551 6.13834 2.18565 5.99992C2.27578 5.86149 2.32683 5.70128 2.3334 5.53622C2.33998 5.37117 2.30183 5.2074 2.22299 5.06225C2.14415 4.91709 2.02756 4.79593 1.88553 4.71159L1.82136 4.67721C1.62291 4.57913 1.44553 4.37654 1.41986 4.10888L1.41666 4.0415V3.20825C1.41664 2.85753 1.55064 2.52006 1.79124 2.26488C2.03185 2.00971 2.36087 1.85612 2.71099 1.83554L2.79166 1.83325H9.20832ZM9.20832 2.74992H2.79166C2.6794 2.74993 2.57104 2.79115 2.48715 2.86575C2.40326 2.94034 2.34967 3.04314 2.33653 3.15463L2.33332 3.20825V3.91179C2.60486 4.06845 2.8317 4.29212 2.99216 4.56143C3.15262 4.83074 3.24133 5.13669 3.24984 5.45007C3.25835 5.76344 3.18635 6.07376 3.04074 6.35138C2.89513 6.629 2.68076 6.86464 2.41811 7.03579L2.33332 7.08804V7.79159C2.33334 7.90385 2.37455 8.0122 2.44915 8.09609C2.52375 8.17998 2.62654 8.23358 2.73803 8.24671L2.79166 8.24992H9.20832C9.32058 8.2499 9.42894 8.20869 9.51283 8.13409C9.59672 8.05949 9.65031 7.9567 9.66345 7.84521L9.66666 7.79159V7.08804C9.39511 6.93139 9.16828 6.70772 9.00782 6.43841C8.84736 6.1691 8.75864 5.86314 8.75014 5.54977C8.74163 5.2364 8.81363 4.92608 8.95924 4.64846C9.10485 4.37084 9.31922 4.1352 9.58186 3.96404L9.66666 3.91179V3.20825C9.66664 3.09599 9.62543 2.98764 9.55083 2.90375C9.47623 2.81986 9.37344 2.76626 9.26195 2.75313L9.20832 2.74992ZM5.08332 4.12492C5.19558 4.12493 5.30394 4.16615 5.38783 4.24075C5.47172 4.31534 5.52531 4.41814 5.53845 4.52963L5.54166 4.58325V6.41659C5.54153 6.53341 5.4968 6.64577 5.4166 6.73071C5.33641 6.81566 5.2268 6.86678 5.11018 6.87362C4.99356 6.88047 4.87873 6.84253 4.78915 6.76755C4.69957 6.69257 4.642 6.58621 4.6282 6.47021L4.62499 6.41659V4.58325C4.62499 4.46169 4.67328 4.34512 4.75923 4.25916C4.84519 4.17321 4.96177 4.12492 5.08332 4.12492Z" fill="#EF233C"/>
</svg>
