<svg width="12" height="13" viewBox="0 0 12 13" fill="none" xmlns="http://www.w3.org/2000/svg">
<g id="Delivered">
<path id="Vector" d="M8.789 2.716L7.789 2.191C6.911 1.7305 6.472 1.5 6 1.5C5.528 1.5 5.089 1.73 4.211 2.191L4.0505 2.2755L8.512 4.825L10.52 3.82C10.197 3.454 9.676 3.1805 8.789 2.715M10.874 4.482L8.875 5.482V7C8.875 7.09946 8.83549 7.19484 8.76517 7.26516C8.69484 7.33549 8.59946 7.375 8.5 7.375C8.40054 7.375 8.30516 7.33549 8.23483 7.26516C8.16451 7.19484 8.125 7.09946 8.125 7V5.857L6.375 6.732V11.452C6.734 11.3625 7.1425 11.1485 7.789 10.809L8.789 10.284C9.8645 9.7195 10.4025 9.4375 10.7015 8.93C11 8.423 11 7.7915 11 6.53V6.4715C11 5.525 11 4.933 10.874 4.482ZM5.625 11.452V6.732L1.126 4.482C1 4.933 1 5.525 1 6.4705V6.529C1 7.7915 1 8.423 1.2985 8.93C1.5975 9.4375 2.1355 9.72 3.211 10.2845L4.211 10.809C4.8575 11.1485 5.266 11.3625 5.625 11.452ZM1.48 3.8205L6 6.0805L7.7055 5.228L3.2625 2.689L3.211 2.716C2.3245 3.181 1.803 3.4545 1.48 3.821" fill="#EF233C"/>
</g>
</svg>
