<svg width="12" height="13" viewBox="0 0 12 13" fill="none" xmlns="http://www.w3.org/2000/svg">
<g id="Edit">
<path id="Vector" fill-rule="evenodd" clip-rule="evenodd" d="M10.7274 3.20791C10.775 3.28002 10.7961 3.36631 10.7874 3.45221C10.7786 3.53811 10.7405 3.61836 10.6794 3.67941L6.08295 8.27541C6.03593 8.32241 5.97725 8.35606 5.91295 8.37291L3.99845 8.87291C3.93516 8.88942 3.86866 8.88909 3.80554 8.87195C3.74243 8.85481 3.68489 8.82146 3.63864 8.77522C3.5924 8.72897 3.55905 8.67143 3.54191 8.60832C3.52477 8.5452 3.52444 8.4787 3.54095 8.41541L4.04095 6.50141C4.05554 6.44396 4.08308 6.3906 4.12145 6.34541L8.73495 1.73491C8.80526 1.66469 8.90057 1.62524 8.99995 1.62524C9.09932 1.62524 9.19464 1.66469 9.26495 1.73491L10.6794 3.14891C10.6974 3.16692 10.7135 3.18668 10.7274 3.20791ZM9.88395 3.41391L8.99995 2.53041L4.74095 6.78941L4.42845 7.98591L5.62495 7.67341L9.88395 3.41391Z" fill="#8D99AF"/>
<path id="Vector_2" d="M9.82053 9.07994C9.95719 7.91192 10.0008 6.73488 9.95103 5.55994C9.94994 5.53226 9.95458 5.50465 9.96465 5.47885C9.97471 5.45304 9.98999 5.42958 10.0095 5.40994L10.5015 4.91794C10.515 4.90442 10.532 4.89507 10.5507 4.89102C10.5693 4.88696 10.5887 4.88837 10.6066 4.89507C10.6244 4.90178 10.6399 4.9135 10.6513 4.92882C10.6626 4.94414 10.6693 4.96241 10.6705 4.98144C10.7631 6.37706 10.728 7.77822 10.5655 9.16744C10.4475 10.1784 9.63553 10.9709 8.62903 11.0834C6.8817 11.2769 5.11835 11.2769 3.37103 11.0834C2.36503 10.9709 1.55253 10.1784 1.43453 9.16744C1.22723 7.39515 1.22723 5.60473 1.43453 3.83244C1.55253 2.82144 2.36453 2.02894 3.37103 1.91644C4.69721 1.76938 6.03339 1.73376 7.36553 1.80994C7.38459 1.81131 7.40287 1.81812 7.41818 1.82955C7.4335 1.84098 7.44522 1.85657 7.45195 1.87445C7.45869 1.89234 7.46015 1.91178 7.45618 1.93048C7.45221 1.94918 7.44296 1.96634 7.42953 1.97994L6.93303 2.47594C6.91358 2.49532 6.89037 2.5105 6.86483 2.52056C6.83929 2.53063 6.81196 2.53535 6.78453 2.53444C5.67291 2.49666 4.56001 2.53927 3.45453 2.66194C3.1315 2.6977 2.82995 2.8413 2.59861 3.06957C2.36726 3.29783 2.21961 3.59742 2.17953 3.91994C1.97905 5.6341 1.97905 7.36578 2.17953 9.07994C2.21961 9.40246 2.36726 9.70205 2.59861 9.93032C2.82995 10.1586 3.1315 10.3022 3.45453 10.3379C5.13203 10.5254 6.86803 10.5254 8.54603 10.3379C8.86906 10.3022 9.1706 10.1586 9.40195 9.93032C9.6333 9.70205 9.78044 9.40246 9.82053 9.07994Z" fill="#8D99AF"/>
</g>
</svg>
