<svg width="12" height="12" viewBox="0 0 12 12" fill="none" xmlns="http://www.w3.org/2000/svg">
<path d="M6.40995 2.78956L5.9996 3.20082L5.58795 2.78919C4.53844 1.73966 2.8368 1.73966 1.78727 2.78919C0.737738 3.83872 0.737738 5.54035 1.78727 6.5899L5.73495 10.5375C5.8814 10.684 6.11885 10.684 6.2653 10.5375L10.216 6.58915C11.2632 5.53615 11.265 3.83929 10.2153 2.78956C9.16385 1.73812 7.4614 1.73812 6.40995 2.78956ZM9.6842 6.0603L6.0001 9.7421L2.3176 6.05955C1.56096 5.3029 1.56096 4.07616 2.3176 3.31952C3.07424 2.56288 4.301 2.56288 5.05765 3.31952L5.73635 3.99824C5.8853 4.14718 6.12765 4.14427 6.27295 3.99182L6.9403 3.31989C7.69885 2.56134 8.9264 2.56134 9.68495 3.31989C10.4418 4.07672 10.4405 5.29985 9.6842 6.0603Z" fill="#171823"/>
</svg>
