<svg width="17" height="16" viewBox="0 0 17 16" fill="none" xmlns="http://www.w3.org/2000/svg">
<path d="M9.08067 3.71941L8.49934 4.26775L7.91617 3.71892C6.42936 2.31954 4.01871 2.31954 2.53188 3.71892C1.04504 5.11829 1.04504 7.38713 2.53188 8.78653L8.12442 14.0501C8.33189 14.2453 8.66828 14.2453 8.87575 14.0501L14.4726 8.78553C15.9561 7.38153 15.9587 5.11905 14.4716 3.71941C12.982 2.31749 10.5702 2.31749 9.08067 3.71941ZM13.7192 8.0804L8.50005 12.9895L3.28318 8.0794C2.21127 7.07053 2.21127 5.43488 3.28318 4.42603C4.35509 3.41717 6.09299 3.41717 7.16491 4.42603L8.1264 5.33099C8.33741 5.52957 8.68074 5.52569 8.88659 5.32242L9.832 4.42652C10.9066 3.41512 12.6456 3.41512 13.7203 4.42652C14.7925 5.43562 14.7906 7.06647 13.7192 8.0804Z" fill="#8D99AF"/>
</svg>
