<svg width="12" height="12" viewBox="0 0 12 12" fill="none" xmlns="http://www.w3.org/2000/svg">
<path d="M11.0155 5.43753L9.94748 3.66603C9.86917 3.53752 9.75928 3.43119 9.62826 3.35715C9.49725 3.28311 9.34947 3.24382 9.19898 3.24303H8.36048V3.11853C8.3605 2.93873 8.32499 2.7607 8.256 2.59467C8.18701 2.42864 8.08591 2.27787 7.95848 2.15103C7.70096 1.89426 7.35214 1.75006 6.98848 1.75003H1.99698C1.72534 1.74836 1.45937 1.82772 1.23306 1.97797C1.00676 2.12822 0.830382 2.34254 0.726482 2.59353C0.65794 2.76001 0.623265 2.93849 0.624482 3.11853V7.59753C0.624658 7.80791 0.701109 8.0111 0.839663 8.16942C0.978217 8.32774 1.16948 8.43046 1.37798 8.45853C1.37548 8.50353 1.37548 8.54853 1.37798 8.59303C1.37612 8.8051 1.41715 9.01537 1.4986 9.21119C1.58006 9.40701 1.70026 9.58434 1.85198 9.73253C2.00083 9.88737 2.17897 10.0111 2.37605 10.0965C2.57313 10.1819 2.78521 10.2273 2.99998 10.23C3.42866 10.2262 3.83879 10.0546 4.14248 9.75203C4.44593 9.44997 4.61835 9.04066 4.62248 8.61253C4.62496 8.57123 4.62496 8.52982 4.62248 8.48853H7.37698C7.3745 8.52982 7.3745 8.57123 7.37698 8.61253C7.37502 8.82469 7.416 9.03506 7.49746 9.23097C7.57892 9.42689 7.69917 9.6043 7.85098 9.75253C7.99993 9.90751 8.17823 10.0313 8.37549 10.1167C8.57275 10.2021 8.78504 10.2475 8.99998 10.25C9.42867 10.2462 9.83882 10.0746 10.1425 9.77203C10.4457 9.46989 10.618 9.06059 10.622 8.63253C10.6245 8.59106 10.6245 8.54949 10.622 8.50803H11C11.0986 8.50662 11.1928 8.46691 11.2627 8.3973C11.3326 8.3277 11.3727 8.23365 11.3745 8.13503V6.69703C11.3745 6.25203 11.25 5.81603 11.0155 5.43753ZM3.86848 8.59253C3.86898 8.70687 3.84623 8.82013 3.80162 8.92542C3.75701 9.03071 3.69147 9.12584 3.60898 9.20503C3.44264 9.36308 3.22194 9.45122 2.99248 9.45122C2.76302 9.45122 2.54232 9.36308 2.37598 9.20503C2.29495 9.12409 2.23077 9.02788 2.18717 8.92197C2.14357 8.81606 2.12142 8.70256 2.12198 8.58803C2.11976 8.46977 2.14367 8.35248 2.19198 8.24453C2.25798 8.08803 2.37148 7.95603 2.51598 7.86603C2.66377 7.76834 2.83787 7.7181 3.01498 7.72203C3.18398 7.72203 3.34898 7.77203 3.48898 7.86603C3.63248 7.95753 3.74548 8.08903 3.81398 8.24453C3.86298 8.35203 3.88898 8.46953 3.88848 8.58803L3.86848 8.59253ZM5.49048 6.10453H2.99548C2.86339 6.10439 2.73672 6.052 2.64313 5.95879C2.54954 5.86557 2.49664 5.73911 2.49598 5.60703C2.49585 5.54151 2.50867 5.47661 2.53372 5.41606C2.55876 5.35552 2.59553 5.30052 2.6419 5.25424C2.68828 5.20795 2.74335 5.1713 2.80394 5.14638C2.86454 5.12146 2.92946 5.10876 2.99498 5.10903H5.49048C5.62257 5.10929 5.74919 5.16181 5.84268 5.25512C5.93618 5.34842 5.98895 5.47494 5.98948 5.60703C5.98955 5.6725 5.97668 5.73735 5.9516 5.79784C5.92653 5.85832 5.88975 5.91326 5.84338 5.95949C5.79702 6.00572 5.74197 6.04233 5.68141 6.06722C5.62084 6.09211 5.55596 6.10479 5.49048 6.10453ZM5.49048 4.39253H2.99548C2.86339 4.3924 2.73672 4.34 2.64313 4.24679C2.54954 4.15357 2.49664 4.02711 2.49598 3.89503C2.49592 3.82955 2.50879 3.7647 2.53386 3.70422C2.55893 3.64373 2.59571 3.58879 2.64208 3.54256C2.68845 3.49633 2.7435 3.45972 2.80406 3.43483C2.86462 3.40994 2.9295 3.39726 2.99498 3.39753H5.49048C5.62248 3.39779 5.74903 3.45024 5.84251 3.54344C5.93599 3.63664 5.98882 3.76302 5.98948 3.89503C5.98955 3.9605 5.97668 4.02535 5.9516 4.08584C5.92653 4.14632 5.88975 4.20126 5.84338 4.24749C5.79702 4.29372 5.74197 4.33033 5.68141 4.35522C5.62084 4.38011 5.55596 4.39279 5.49048 4.39253ZM9.85748 8.59253C9.85794 8.70691 9.83513 8.8202 9.79043 8.9255C9.74573 9.03079 9.68009 9.1259 9.59748 9.20503C9.43116 9.36294 9.21057 9.45098 8.98123 9.45098C8.75189 9.45098 8.5313 9.36294 8.36498 9.20503C8.28386 9.12413 8.21959 9.02794 8.1759 8.92203C8.13222 8.81612 8.10998 8.70259 8.11048 8.58803C8.10836 8.40673 8.16639 8.22984 8.27548 8.08503C8.39848 7.92153 8.57498 7.80503 8.77448 7.75653H8.89948C8.92237 7.75143 8.94609 7.75143 8.96898 7.75653H9.06898C9.22048 7.77403 9.36498 7.83053 9.48798 7.92103C9.61148 8.01153 9.70798 8.13353 9.76748 8.27453C9.81698 8.38203 9.84248 8.49953 9.84248 8.61753L9.85748 8.59253Z" fill="#EF233C"/>
<path d="M8.97997 7.71703C8.95693 7.71183 8.93302 7.71183 8.90997 7.71703H8.97997Z" fill="#EF233C"/>
</svg>
