<svg width="25" height="24" viewBox="0 0 25 24" fill="none" xmlns="http://www.w3.org/2000/svg">
<path d="M16.5 15.76V6.25C16.5 5.71957 16.2893 5.21086 15.9142 4.83579C15.5391 4.46071 15.0304 4.25 14.5 4.25H4.5C3.96957 4.25 3.46086 4.46071 3.08579 4.83579C2.71071 5.21086 2.5 5.71957 2.5 6.25V15.25C2.5 15.5152 2.60536 15.7696 2.79289 15.9571C2.98043 16.1446 3.23478 16.25 3.5 16.25H4.21C4.40493 15.8049 4.72534 15.4263 5.13204 15.1604C5.53874 14.8945 6.0141 14.7529 6.5 14.7529C6.9859 14.7529 7.46126 14.8945 7.86796 15.1604C8.27466 15.4263 8.59507 15.8049 8.79 16.25H16.21C16.283 16.074 16.38 15.909 16.5 15.76ZM16.5 15.76C16.7599 15.4075 17.1081 15.1298 17.5096 14.9548C17.9111 14.7799 18.3517 14.714 18.7868 14.7637C19.2219 14.8134 19.6362 14.9769 19.9879 15.2379C20.3396 15.4989 20.6163 15.848 20.79 16.25H22.5V13.36C22.5004 12.6343 22.3033 11.9223 21.93 11.3L20.7 9.25L19.79 7.74C19.7015 7.59072 19.5757 7.46705 19.4249 7.38114C19.2741 7.29522 19.1035 7.25003 18.93 7.25H16.5V15.76Z" stroke="white" stroke-width="1.5" stroke-linecap="round" stroke-linejoin="round"/>
<path d="M11.5 11.25H9H6.5M11.5 8.25H6.5M9 17.25C9.00044 17.6219 8.91789 17.9892 8.75839 18.3252C8.59888 18.6611 8.36642 18.9573 8.07796 19.192C7.7895 19.4268 7.4523 19.5942 7.09094 19.6821C6.72957 19.77 6.35315 19.7762 5.98909 19.7002C5.62504 19.6242 5.28253 19.4679 4.98652 19.2428C4.69051 19.0176 4.44846 18.7293 4.27802 18.3987C4.10757 18.0682 4.01302 17.7038 4.00125 17.332C3.98948 16.9603 4.0608 16.5907 4.21 16.25C4.4402 15.7244 4.84422 15.2939 5.35423 15.031C5.86424 14.768 6.44919 14.6884 7.01091 14.8057C7.57262 14.923 8.07689 15.2299 8.43908 15.675C8.80127 16.1201 8.99932 16.6762 9 17.25ZM21 17.25C21.0004 17.6219 20.9179 17.9892 20.7584 18.3252C20.5989 18.6611 20.3664 18.9573 20.078 19.192C19.7895 19.4268 19.4523 19.5942 19.0909 19.6821C18.7296 19.77 18.3531 19.7762 17.9891 19.7002C17.625 19.6242 17.2825 19.4679 16.9865 19.2428C16.6905 19.0176 16.4485 18.7293 16.278 18.3987C16.1076 18.0682 16.013 17.7038 16.0013 17.332C15.9895 16.9603 16.0608 16.5907 16.21 16.25C16.283 16.074 16.38 15.909 16.5 15.76C16.7599 15.4075 17.1081 15.1298 17.5096 14.9548C17.9111 14.7799 18.3517 14.714 18.7868 14.7637C19.2219 14.8134 19.6362 14.9769 19.9879 15.2379C20.3396 15.4989 20.6163 15.848 20.79 16.25C20.93 16.565 21.002 16.906 21 17.25Z" stroke="#EF233C" stroke-width="1.5" stroke-linecap="round" stroke-linejoin="round"/>
</svg>
