<svg width="25" height="24" viewBox="0 0 25 24" fill="none" xmlns="http://www.w3.org/2000/svg">
<path d="M16.5001 13.1557C16.5316 13.4705 17.3763 14.4468 17.5964 14.2352L19.3139 12.5869L21.6251 13.1557C21.9218 13.2284 22.1628 12.918 22.0329 12.63L21.0194 10.3863L22.2038 8.28863C22.2381 8.22802 22.2552 8.15811 22.253 8.08689C22.2509 8.01566 22.2296 7.94598 22.1917 7.88581C22.1538 7.82564 22.1007 7.77739 22.0386 7.74658C21.9764 7.71577 21.9076 7.70363 21.8401 7.71156L19.4955 7.9706L17.9159 6.10523C17.87 6.05129 17.811 6.0114 17.7454 5.99003C17.6799 5.96866 17.6104 5.96666 17.5447 5.98424C17.4791 6.00183 17.4199 6.03831 17.3738 6.0896C17.3277 6.14088 17.2966 6.20495 17.2838 6.2746L16.8485 8.67988L14.6886 9.62824" stroke="#EF233C" stroke-linecap="round" stroke-linejoin="round"/>
<path d="M8.5 13.1557C8.46843 13.4705 7.6238 14.4468 7.40369 14.2352L5.68614 12.5869L3.37494 13.1557C3.07823 13.2284 2.83721 12.918 2.96717 12.63L3.98066 10.3863L2.79625 8.28863C2.76195 8.22802 2.74489 8.15812 2.74703 8.08689C2.74916 8.01566 2.7704 7.94599 2.80833 7.88581C2.84625 7.82564 2.89933 7.7774 2.9615 7.74658C3.02367 7.71577 3.09244 7.70364 3.15994 7.71157L5.50452 7.9706L7.08416 6.10523C7.13004 6.0513 7.18908 6.01141 7.25463 5.99004C7.32019 5.96866 7.38968 5.96666 7.45532 5.98425C7.52095 6.00183 7.58013 6.03832 7.62622 6.0896C7.67231 6.14089 7.70349 6.20495 7.71626 6.2746L8.15158 8.67988L10.3115 9.62825" stroke="#EF233C" stroke-linecap="round" stroke-linejoin="round"/>
<path fill-rule="evenodd" clip-rule="evenodd" d="M12.4995 6.5C12.4962 6.5 12.4912 6.50084 12.4847 6.50507C12.4779 6.50946 12.4691 6.51799 12.4622 6.53235C12.4622 6.53245 12.4623 6.53225 12.4622 6.53235L10.9035 9.83606C10.8325 9.98649 10.6914 10.0918 10.527 10.1169L7.03912 10.651C7.0365 10.6514 7.03112 10.6529 7.02435 10.6589C7.01734 10.6651 7.00924 10.6759 7.00428 10.6918C6.99929 10.7079 6.99859 10.7259 7.00256 10.7429C7.00649 10.7596 7.0141 10.7718 7.0214 10.7793C7.02134 10.7793 7.02145 10.7794 7.0214 10.7793L9.5426 13.3494C9.65416 13.4631 9.70485 13.6232 9.67908 13.7804L9.08382 17.4117C9.07986 17.436 9.08353 17.4518 9.08789 17.4624C9.0929 17.4745 9.10106 17.4847 9.11025 17.4917C9.11943 17.4987 9.12597 17.4998 9.12736 17.5C9.12795 17.5 9.12843 17.5 9.12936 17.4998C9.13018 17.4997 9.13382 17.4989 9.14043 17.4952L12.2584 15.7796C12.4085 15.697 12.5904 15.697 12.7405 15.7796L15.8571 17.4948C15.857 17.4947 15.8571 17.4948 15.8571 17.4948C15.8637 17.4984 15.8676 17.4993 15.8687 17.4996C15.8698 17.4998 15.8705 17.4998 15.8712 17.4997C15.873 17.4995 15.8797 17.4983 15.8889 17.4913C15.8982 17.4843 15.9062 17.4742 15.9111 17.4623C15.9154 17.452 15.919 17.4365 15.9151 17.4126C15.9151 17.4125 15.9151 17.4126 15.9151 17.4126L15.3198 13.7811C15.2941 13.6239 15.3448 13.4638 15.4563 13.35L17.978 10.7795C17.9853 10.772 17.9934 10.7594 17.9974 10.7425C18.0014 10.7256 18.0007 10.7075 17.9957 10.6914C17.9908 10.6754 17.9826 10.6646 17.9756 10.6584C17.9688 10.6524 17.9635 10.6509 17.9608 10.6505L17.9575 10.65L14.472 10.117C14.3076 10.0918 14.1664 9.98651 14.0954 9.83606L12.5368 6.53265C12.5368 6.53255 12.5369 6.53274 12.5368 6.53265C12.53 6.51828 12.521 6.50946 12.5143 6.50507C12.5077 6.50084 12.5027 6.5 12.4995 6.5ZM11.9392 5.66692C12.1055 5.55872 12.2996 5.5 12.4995 5.5C12.6994 5.5 12.8934 5.55872 13.0597 5.66692C13.2257 5.77494 13.3564 5.92719 13.4403 6.10391L13.4407 6.10493L14.8863 9.16868L18.1053 9.661C18.1059 9.6611 18.1066 9.66119 18.1072 9.66129C18.3049 9.69054 18.488 9.77714 18.6364 9.90781C18.7851 10.0387 18.8929 10.2083 18.9509 10.3954C19.0089 10.5823 19.0156 10.7819 18.9706 10.9723C18.9257 11.1627 18.8301 11.3392 18.6915 11.4802L16.3477 13.8694L16.902 17.2509C17.0371 18.0773 16.186 18.8162 15.3758 18.3713L12.4994 16.7884L9.62337 18.3709C8.81137 18.8183 7.9623 18.0748 8.09689 17.2506L8.65125 13.8688L6.30708 11.4792C6.16919 11.3381 6.07354 11.1613 6.02897 10.9712C5.98441 10.7811 5.99132 10.582 6.04922 10.3954C6.10715 10.2088 6.21469 10.0396 6.36293 9.90886C6.51105 9.77823 6.69377 9.69153 6.89116 9.662L10.1126 9.16874L11.5582 6.10493L11.5587 6.10391C11.6425 5.92719 11.7732 5.77494 11.9392 5.66692Z" fill="white"/>
</svg>
