<svg width="24" height="24" viewBox="0 0 24 24" fill="none" xmlns="http://www.w3.org/2000/svg">
<path d="M16.0001 13.1557C16.0316 13.4705 16.8763 14.4468 17.0964 14.2352L18.8139 12.5869L21.1251 13.1557C21.4218 13.2284 21.6628 12.918 21.5329 12.63L20.5194 10.3864L21.7038 8.28866C21.7381 8.22805 21.7552 8.15814 21.753 8.08692C21.7509 8.01569 21.7296 7.94601 21.6917 7.88584C21.6538 7.82567 21.6007 7.77742 21.5386 7.74661C21.4764 7.7158 21.4076 7.70367 21.3401 7.71159L18.9955 7.97063L17.4159 6.10526C17.37 6.05132 17.311 6.01143 17.2454 5.99006C17.1799 5.96869 17.1104 5.96669 17.0447 5.98427C16.9791 6.00186 16.9199 6.03834 16.8738 6.08963C16.8277 6.14091 16.7966 6.20498 16.7838 6.27463L16.3485 8.67991L14.1886 9.62827" stroke="#EF233C" stroke-linecap="round" stroke-linejoin="round"/>
<path d="M8 13.1557C7.96843 13.4705 7.1238 14.4468 6.90369 14.2352L5.18614 12.5869L2.87494 13.1557C2.57823 13.2284 2.33721 12.918 2.46717 12.63L3.48066 10.3863L2.29625 8.28863C2.26195 8.22802 2.24489 8.15812 2.24703 8.08689C2.24916 8.01566 2.2704 7.94599 2.30833 7.88581C2.34625 7.82564 2.39933 7.7774 2.4615 7.74658C2.52367 7.71577 2.59244 7.70364 2.65994 7.71157L5.00452 7.9706L6.58416 6.10523C6.63004 6.0513 6.68908 6.01141 6.75463 5.99004C6.82019 5.96866 6.88968 5.96666 6.95532 5.98425C7.02095 6.00183 7.08013 6.03832 7.12622 6.0896C7.17231 6.14089 7.20349 6.20495 7.21626 6.2746L7.65158 8.67988L9.81145 9.62825" stroke="#EF233C" stroke-linecap="round" stroke-linejoin="round"/>
<path fill-rule="evenodd" clip-rule="evenodd" d="M11.9995 6.5C11.9962 6.5 11.9912 6.50084 11.9847 6.50507C11.9779 6.50946 11.9691 6.51799 11.9622 6.53235C11.9622 6.53245 11.9623 6.53225 11.9622 6.53235L10.4035 9.83606C10.3325 9.98649 10.1914 10.0918 10.027 10.1169L6.53912 10.651C6.5365 10.6514 6.53112 10.6529 6.52435 10.6589C6.51734 10.6651 6.50924 10.6759 6.50428 10.6918C6.49929 10.7079 6.49859 10.7259 6.50256 10.7429C6.50649 10.7596 6.5141 10.7718 6.5214 10.7793C6.52134 10.7793 6.52145 10.7794 6.5214 10.7793L9.0426 13.3494C9.15416 13.4631 9.20485 13.6232 9.17908 13.7804L8.58382 17.4117C8.57986 17.436 8.58353 17.4518 8.58789 17.4624C8.5929 17.4745 8.60106 17.4847 8.61025 17.4917C8.61943 17.4987 8.62597 17.4998 8.62736 17.5C8.62795 17.5 8.62843 17.5 8.62936 17.4998C8.63018 17.4997 8.63382 17.4989 8.64043 17.4952L11.7584 15.7796C11.9085 15.697 12.0904 15.697 12.2405 15.7796L15.3571 17.4948C15.357 17.4947 15.3571 17.4948 15.3571 17.4948C15.3637 17.4984 15.3676 17.4993 15.3687 17.4996C15.3698 17.4998 15.3705 17.4998 15.3712 17.4997C15.373 17.4995 15.3797 17.4983 15.3889 17.4913C15.3982 17.4843 15.4062 17.4742 15.4111 17.4623C15.4154 17.452 15.419 17.4365 15.4151 17.4126C15.4151 17.4125 15.4151 17.4126 15.4151 17.4126L14.8198 13.7811C14.7941 13.6239 14.8448 13.4638 14.9563 13.35L17.478 10.7795C17.4853 10.772 17.4934 10.7594 17.4974 10.7425C17.5014 10.7256 17.5007 10.7075 17.4957 10.6914C17.4908 10.6754 17.4826 10.6646 17.4756 10.6584C17.4688 10.6524 17.4635 10.6509 17.4608 10.6505L17.4575 10.65L13.972 10.117C13.8076 10.0918 13.6664 9.98651 13.5954 9.83606L12.0368 6.53265C12.0368 6.53255 12.0369 6.53274 12.0368 6.53265C12.03 6.51828 12.021 6.50946 12.0143 6.50507C12.0077 6.50084 12.0027 6.5 11.9995 6.5ZM11.4392 5.66692C11.6055 5.55872 11.7996 5.5 11.9995 5.5C12.1994 5.5 12.3934 5.55872 12.5597 5.66692C12.7257 5.77494 12.8564 5.92719 12.9403 6.10391L12.9407 6.10493L14.3863 9.16868L17.6053 9.661C17.6059 9.6611 17.6066 9.66119 17.6072 9.66129C17.8049 9.69054 17.988 9.77714 18.1364 9.90781C18.2851 10.0387 18.3929 10.2083 18.4509 10.3954C18.5089 10.5823 18.5156 10.7819 18.4706 10.9723C18.4257 11.1627 18.3301 11.3392 18.1915 11.4802L15.8477 13.8694L16.402 17.2509C16.5371 18.0773 15.686 18.8162 14.8758 18.3713L11.9994 16.7884L9.12337 18.3709C8.31137 18.8183 7.4623 18.0748 7.59689 17.2506L8.15125 13.8688L5.80708 11.4792C5.66919 11.3381 5.57354 11.1613 5.52897 10.9712C5.48441 10.7811 5.49132 10.582 5.54922 10.3954C5.60715 10.2088 5.71469 10.0396 5.86293 9.90886C6.01105 9.77823 6.19377 9.69153 6.39116 9.662L9.61262 9.16874L11.0582 6.10493L11.0587 6.10391C11.1425 5.92719 11.2732 5.77494 11.4392 5.66692Z" fill="#171823"/>
</svg>
