<svg width="24" height="24" viewBox="0 0 24 24" fill="none" xmlns="http://www.w3.org/2000/svg">
<path d="M20.236 12.057L19.53 16.137L21.009 16.393L21.714 12.313L20.236 12.057ZM13.245 21.25H8.596V22.75H13.245V21.25ZM7.685 20.413L6.873 11.02L5.378 11.149L6.191 20.542L7.685 20.413ZM19.53 16.137C19.023 19.067 16.381 21.25 13.245 21.25V22.75C17.071 22.75 20.371 20.081 21.009 16.393L19.53 16.137ZM13.255 5.10002L12.592 9.14502L14.072 9.38702L14.735 5.34302L13.255 5.10002ZM7.188 10.246L8.627 9.00602L7.647 7.87002L6.21 9.11002L7.188 10.246ZM11.244 4.97202L11.72 3.13802L10.268 2.76202L9.792 4.59502L11.244 4.97202ZM12.438 2.77802L12.583 2.82502L13.042 1.39702L12.897 1.35002L12.438 2.77802ZM10.523 6.81602C10.8354 6.23201 11.0774 5.61302 11.244 4.97202L9.792 4.59502C9.65528 5.12165 9.45656 5.63021 9.2 6.11002L10.523 6.81602ZM12.583 2.82502C12.7257 2.86826 12.8551 2.94685 12.9593 3.05349C13.0635 3.16013 13.1391 3.29137 13.179 3.43502L14.631 3.05902C14.5277 2.67037 14.3277 2.31417 14.0497 2.02358C13.7717 1.73299 13.4257 1.51745 13.042 1.39702L12.583 2.82502ZM11.72 3.13802C11.7399 3.06596 11.7752 2.9991 11.8236 2.94211C11.8719 2.88512 11.9321 2.83935 12 2.80802L11.349 1.45702C10.817 1.71302 10.417 2.18702 10.268 2.76202L11.72 3.13802ZM12 2.80802C12.1369 2.74265 12.2935 2.73192 12.438 2.77802L12.897 1.35002C12.3863 1.18634 11.8323 1.22463 11.349 1.45702L12 2.80802ZM14.154 10.984H19.334V9.48402H14.154V10.984ZM14.735 5.34302C14.8597 4.58274 14.8243 3.80481 14.631 3.05902L13.179 3.43602C13.3199 3.97934 13.3458 4.54611 13.255 5.10002L14.735 5.34302ZM8.596 21.25C8.36701 21.2496 8.14648 21.1635 7.97785 21.0085C7.80923 20.8536 7.70475 20.6412 7.685 20.413L6.191 20.542C6.24303 21.1442 6.51888 21.705 6.9641 22.1137C7.40933 22.5225 7.99159 22.7495 8.596 22.75V21.25ZM8.627 9.00602C9.307 8.42002 10.039 7.72302 10.524 6.81602L9.2 6.11002C8.854 6.75902 8.302 7.30602 7.647 7.87002L8.627 9.00602ZM21.714 12.313C21.7742 11.966 21.7578 11.61 21.666 11.27C21.5741 10.93 21.4091 10.6142 21.1823 10.3447C20.9556 10.0752 20.6727 9.85848 20.3534 9.70982C20.0341 9.56115 19.6862 9.48408 19.334 9.48402V10.984C19.901 10.984 20.334 11.496 20.236 12.057L21.714 12.313ZM12.592 9.14502C12.5547 9.3716 12.5672 9.60357 12.6285 9.82486C12.6899 10.0461 12.7986 10.2514 12.9472 10.4265C13.0958 10.6015 13.2807 10.7422 13.4891 10.8386C13.6975 10.9351 13.9244 10.984 14.154 10.984V9.48402C14.1418 9.48407 14.1297 9.48243 14.1187 9.47729C14.1076 9.47215 14.0978 9.46464 14.09 9.45528C14.0821 9.44592 14.0765 9.43495 14.0734 9.42315C14.0703 9.41136 14.0698 9.39902 14.072 9.38702L12.592 9.14502ZM6.873 11.02C6.86064 10.8752 6.88184 10.7295 6.93678 10.595C6.99171 10.4604 7.07782 10.3408 7.188 10.246L6.208 9.10902C5.91802 9.35905 5.69155 9.67437 5.54726 10.029C5.40296 10.3837 5.34495 10.7676 5.378 11.149L6.873 11.02Z" fill="#171823"/>
<path d="M3 10.2351L3.747 10.1711C3.72978 9.979 3.63924 9.80093 3.49416 9.67386C3.34909 9.54679 3.16064 9.48048 2.96796 9.48872C2.77528 9.49696 2.59318 9.5791 2.45948 9.71809C2.32578 9.85708 2.25076 10.0422 2.25 10.2351H3ZM4.719 21.4071L3.747 10.1711L2.253 10.2991L3.224 21.5361L4.719 21.4071ZM3.75 21.5141V10.2341L2.25 10.2351V21.5131L3.75 21.5141ZM3.224 21.5361C3.22095 21.4997 3.22549 21.4632 3.23733 21.4287C3.24918 21.3942 3.26807 21.3625 3.2928 21.3357C3.31753 21.3089 3.34757 21.2876 3.381 21.273C3.41443 21.2584 3.45053 21.251 3.487 21.2511V22.7511C4.213 22.7511 4.781 22.1291 4.719 21.4071L3.224 21.5361ZM3.487 21.2511C3.633 21.2511 3.75 21.3701 3.75 21.5141L2.25 21.5131C2.25 22.1951 2.803 22.7511 3.487 22.7511V21.2511Z" fill="#EF233C"/>
</svg>
