<svg width="24" height="24" viewBox="0 0 24 24" fill="none" xmlns="http://www.w3.org/2000/svg">
<path d="M20.2359 12.057L19.5299 16.137L21.0089 16.393L21.7139 12.313L20.2359 12.057ZM13.2449 21.25H8.59592V22.75H13.2449V21.25ZM7.68492 20.413L6.87292 11.02L5.37792 11.149L6.19092 20.542L7.68492 20.413ZM19.5299 16.137C19.0229 19.067 16.3809 21.25 13.2449 21.25V22.75C17.0709 22.75 20.3709 20.081 21.0089 16.393L19.5299 16.137ZM13.2549 5.1L12.5919 9.145L14.0719 9.387L14.7349 5.343L13.2549 5.1ZM7.18792 10.246L8.62692 9.006L7.64692 7.87L6.20992 9.11L7.18792 10.246ZM11.2439 4.972L11.7199 3.138L10.2679 2.762L9.79192 4.595L11.2439 4.972ZM12.4379 2.778L12.5829 2.825L13.0419 1.397L12.8969 1.35L12.4379 2.778ZM10.5229 6.816C10.8353 6.23199 11.0773 5.61301 11.2439 4.972L9.79192 4.595C9.65521 5.12164 9.45648 5.63019 9.19992 6.11L10.5229 6.816ZM12.5829 2.825C12.7256 2.86824 12.8551 2.94683 12.9592 3.05347C13.0634 3.16012 13.139 3.29135 13.1789 3.435L14.6309 3.059C14.5276 2.67035 14.3276 2.31416 14.0496 2.02357C13.7716 1.73298 13.4256 1.51744 13.0419 1.397L12.5829 2.825ZM11.7199 3.138C11.7398 3.06594 11.7751 2.99909 11.8235 2.9421C11.8719 2.8851 11.9321 2.83934 11.9999 2.808L11.3489 1.457C10.8169 1.713 10.4169 2.187 10.2679 2.762L11.7199 3.138ZM11.9999 2.808C12.1368 2.74263 12.2934 2.7319 12.4379 2.778L12.8969 1.35C12.3862 1.18632 11.8322 1.22461 11.3489 1.457L11.9999 2.808ZM14.1539 10.984H19.3339V9.484H14.1539V10.984ZM14.7349 5.343C14.8596 4.58273 14.8242 3.80479 14.6309 3.059L13.1789 3.436C13.3199 3.97932 13.3457 4.54609 13.2549 5.1L14.7349 5.343ZM8.59592 21.25C8.36693 21.2496 8.1464 21.1635 7.97778 21.0085C7.80915 20.8536 7.70467 20.6411 7.68492 20.413L6.19092 20.542C6.24296 21.1442 6.5188 21.7049 6.96403 22.1137C7.40925 22.5225 7.99152 22.7495 8.59592 22.75V21.25ZM8.62692 9.006C9.30692 8.42 10.0389 7.723 10.5239 6.816L9.19992 6.11C8.85392 6.759 8.30192 7.306 7.64692 7.87L8.62692 9.006ZM21.7139 12.313C21.7741 11.966 21.7577 11.61 21.6659 11.27C21.5741 10.93 21.409 10.6142 21.1823 10.3447C20.9555 10.0751 20.6726 9.85847 20.3533 9.7098C20.034 9.56113 19.6861 9.48407 19.3339 9.484V10.984C19.9009 10.984 20.3339 11.496 20.2359 12.057L21.7139 12.313ZM12.5919 9.145C12.5546 9.37158 12.5671 9.60356 12.6284 9.82484C12.6898 10.0461 12.7985 10.2514 12.9471 10.4265C13.0957 10.6015 13.2806 10.7422 13.489 10.8386C13.6974 10.935 13.9243 10.984 14.1539 10.984V9.484C14.1417 9.48406 14.1297 9.48242 14.1186 9.47728C14.1075 9.47214 14.0977 9.46462 14.0899 9.45527C14.0821 9.44591 14.0764 9.43494 14.0733 9.42314C14.0702 9.41134 14.0697 9.399 14.0719 9.387L12.5919 9.145ZM6.87292 11.02C6.86056 10.8752 6.88176 10.7295 6.9367 10.5949C6.99164 10.4604 7.07774 10.3408 7.18792 10.246L6.20792 9.109C5.91794 9.35903 5.69148 9.67436 5.54718 10.029C5.40288 10.3837 5.34487 10.7675 5.37792 11.149L6.87292 11.02Z" fill="white"/>
<path d="M3 10.235L3.747 10.171C3.72978 9.97891 3.63924 9.80084 3.49416 9.67377C3.34909 9.5467 3.16064 9.48039 2.96796 9.48863C2.77528 9.49687 2.59318 9.57901 2.45948 9.718C2.32578 9.85699 2.25076 10.0421 2.25 10.235H3ZM4.719 21.407L3.747 10.171L2.253 10.299L3.224 21.536L4.719 21.407ZM3.75 21.514V10.234L2.25 10.235V21.513L3.75 21.514ZM3.224 21.536C3.22095 21.4997 3.22549 21.4631 3.23733 21.4286C3.24918 21.3941 3.26807 21.3624 3.2928 21.3356C3.31753 21.3088 3.34757 21.2875 3.381 21.2729C3.41443 21.2583 3.45053 21.2509 3.487 21.251V22.751C4.213 22.751 4.781 22.129 4.719 21.407L3.224 21.536ZM3.487 21.251C3.633 21.251 3.75 21.37 3.75 21.514L2.25 21.513C2.25 22.195 2.803 22.751 3.487 22.751V21.251Z" fill="#EF233C"/>
</svg>
