<svg width="25" height="24" viewBox="0 0 25 24" fill="none" xmlns="http://www.w3.org/2000/svg">
<path d="M24.261 12.2739C24.262 11.4562 24.1929 10.6399 24.0543 9.83398H12.738V14.4555H19.2195C19.0869 15.1936 18.8061 15.8972 18.3943 16.524C17.9824 17.1507 17.4478 17.6875 16.8229 18.102V21.1019H20.6911C22.956 19.0137 24.261 15.9254 24.261 12.2739Z" fill="#4285F4"/>
<path d="M12.7382 23.9999C15.9764 23.9999 18.703 22.9366 20.6912 21.1033L16.823 18.1034C15.7464 18.8334 14.3598 19.25 12.7382 19.25C9.60826 19.25 6.95168 17.1401 6.00171 14.2969H2.01685V17.3884C3.01559 19.3758 4.54706 21.0465 6.44027 22.214C8.33348 23.3815 10.5139 23.9998 12.7382 23.9999Z" fill="#34A853"/>
<path d="M6.00163 14.2971C5.49941 12.8072 5.49941 11.1937 6.00163 9.70387V6.6123H2.01676C1.17658 8.28417 0.739014 10.1294 0.739014 12.0005C0.739014 13.8716 1.17658 15.7168 2.01676 17.3886L6.00163 14.2971Z" fill="#FBBC04"/>
<path d="M12.7382 4.75063C14.4494 4.72267 16.1029 5.36924 17.3413 6.55057L20.7662 3.12568C18.5945 1.08588 15.7174 -0.03401 12.7382 0.000787286C10.5139 0.000888658 8.33348 0.619191 6.44027 1.78667C4.54706 2.95414 3.01559 4.62484 2.01685 6.61224L6.00171 9.7038C6.95168 6.86056 9.60826 4.75063 12.7382 4.75063Z" fill="#EA4335"/>
</svg>
