<svg width="14" height="14" viewBox="0 0 14 14" fill="none" xmlns="http://www.w3.org/2000/svg">
<path fill-rule="evenodd" clip-rule="evenodd" d="M4.47732 2.72646C4.58237 2.94406 4.49113 3.20561 4.27354 3.31066L3.34312 3.75982C2.86236 3.99166 2.54648 4.14525 2.34513 4.28081C2.26015 4.33801 2.21832 4.37709 2.19856 4.39969C2.21829 4.42231 2.26011 4.46144 2.3452 4.51875C2.54651 4.65434 2.86217 4.80783 3.34295 5.03967L5.04629 5.86218C6.13635 6.38787 6.55758 6.58 7 6.58C7.44242 6.58 7.86345 6.38797 8.95351 5.86228L10.6568 5.03978C11.1376 4.80793 11.4535 4.65434 11.6548 4.51875C11.7399 4.46144 11.7817 4.42231 11.8014 4.39968C11.7817 4.37709 11.7398 4.33801 11.6549 4.28081C11.4535 4.14525 11.1378 3.99174 10.6571 3.75991L9.72646 3.31066C9.50887 3.20561 9.41763 2.94406 9.52267 2.72646C9.62772 2.50887 9.88927 2.41763 10.1069 2.52267L11.0677 2.98653C11.5088 3.19918 11.8832 3.37971 12.1435 3.55496C12.4035 3.73001 12.6875 3.98987 12.6875 4.3995V10.0187C12.6875 10.6719 12.2098 11.1056 11.6233 11.4564C11.0298 11.8115 10.157 12.1791 9.05431 12.6436L9.01492 12.6602C8.98409 12.6732 8.95358 12.686 8.92353 12.6987C8.09857 13.0463 7.56566 13.2708 7 13.2708C6.43434 13.2708 5.90142 13.0463 5.07646 12.6987C5.04642 12.686 5.016 12.6732 4.98516 12.6602L4.9457 12.6436C3.84298 12.1791 2.97018 11.8115 2.3767 11.4564C1.79023 11.1056 1.3125 10.6719 1.3125 10.0187V4.3995C1.3125 3.98987 1.59646 3.73001 1.85648 3.55496C2.11681 3.3797 2.49123 3.19917 2.93226 2.98652C2.94238 2.98165 2.95253 2.97675 2.96271 2.97184L3.89313 2.52267C4.11073 2.41763 4.37228 2.50887 4.47732 2.72646ZM2.1875 5.44136V10.0187C2.1875 10.17 2.27735 10.3774 2.8259 10.7056C3.36038 11.0253 4.17629 11.37 5.32467 11.8538M2.1875 5.44136C2.40112 5.55696 2.65337 5.67859 2.93222 5.81304L2.96268 5.82772L4.66601 6.65022C4.69942 6.66633 4.73261 6.68235 4.7652 6.69808C5.51103 7.05805 6.04686 7.31666 6.5625 7.41327V12.3307C6.28302 12.254 5.91934 12.1041 5.32467 11.8538M8.67525 11.8538C8.08057 12.1042 7.71698 12.254 7.4375 12.3307L8.67525 11.8538ZM7.4375 12.3307V7.41327C7.95314 7.31666 8.48897 7.05805 9.2348 6.69808C9.26739 6.68235 9.30038 6.66643 9.33379 6.65032L11.0371 5.82782L11.0678 5.81303C11.3466 5.67858 11.5989 5.55696 11.8125 5.44136V10.0187C11.8125 10.17 11.7226 10.3774 11.1741 10.7056C10.6396 11.0253 9.82362 11.3701 8.67525 11.8538M11.8176 4.37587C11.8176 4.37587 11.8174 4.378 11.8146 4.38243C11.8159 4.37812 11.8176 4.37587 11.8176 4.37587ZM2.18238 4.37587C2.18238 4.37587 2.18414 4.37812 2.18537 4.38243C2.18262 4.378 2.18238 4.37587 2.18238 4.37587ZM3.10845 7.40331C3.21625 7.18707 3.47894 7.09915 3.69519 7.20695L4.86185 7.78854C5.0781 7.89633 5.16601 8.15902 5.05821 8.37527C4.95041 8.59151 4.68773 8.67943 4.47148 8.57163L3.30481 7.99005C3.08857 7.88225 3.00066 7.61956 3.10845 7.40331Z" fill="white"/>
<path fill-rule="evenodd" clip-rule="evenodd" d="M7.00004 4.95831C6.91919 4.95831 6.84198 4.92476 6.78681 4.86566L5.62015 3.61566C5.51024 3.4979 5.5166 3.31333 5.63436 3.20342C5.75212 3.09351 5.93669 3.09988 6.0466 3.21764L6.70837 3.92668L6.70837 1.74998C6.70837 1.5889 6.83896 1.45831 7.00004 1.45831C7.16112 1.45831 7.29171 1.5889 7.29171 1.74998L7.29171 3.92668L7.95348 3.21764C8.06339 3.09988 8.24796 3.09351 8.36572 3.20342C8.48348 3.31333 8.48984 3.4979 8.37993 3.61566L7.21326 4.86566C7.1581 4.92476 7.08088 4.95831 7.00004 4.95831Z" fill="#EF233C"/>
</svg>
