<svg width="24" height="24" viewBox="0 0 24 24" fill="none" xmlns="http://www.w3.org/2000/svg">
<path d="M2.99994 14L3.06599 8.79305C3.06433 8.26093 3.20529 7.73808 3.47418 7.27889C3.74308 6.81971 4.1301 6.44096 4.59499 6.18205L10.55 2.87605H10.552C10.9951 2.62928 11.4938 2.49976 12.001 2.49976C12.5082 2.49976 13.0069 2.62928 13.45 2.87605L19.407 6.18305C19.8717 6.44188 20.2587 6.82047 20.5275 7.27946C20.7964 7.73846 20.9375 8.2611 20.936 8.79305V15.207C20.9377 15.7392 20.7967 16.262 20.5278 16.7212C20.2589 17.1804 19.8719 17.5591 19.407 17.818L13.45 21.124C13.0069 21.3708 12.5082 21.5003 12.001 21.5003C11.4938 21.5003 10.9951 21.3708 10.552 21.124L7.99994 20" stroke="black" stroke-width="1.5" stroke-linecap="round"/>
<path d="M20.33 6.99609L12 12.0001M12 12.0001L3.67 6.99609M12 12.0001V21.4901" stroke="black" stroke-width="1.5"/>
<rect x="0.5" y="-0.5" width="7" height="7.20744" rx="3.5" transform="matrix(1 0 0 -1 1 20.3745)" stroke="#EF233C"/>
<path fill-rule="evenodd" clip-rule="evenodd" d="M4.22477 19.1326C4.32061 19.0021 4.30766 18.8057 4.19584 18.6939L3.79226 18.2903L4.21086 17.8019C4.315 17.6804 4.315 17.4834 4.21086 17.362C4.10672 17.2405 3.93788 17.2405 3.83374 17.362L3.21151 18.0879C3.15899 18.1492 3.13075 18.2332 3.1336 18.3198C3.13645 18.4064 3.17013 18.4877 3.22653 18.5441L3.84875 19.1663C3.96058 19.2781 4.12892 19.263 4.22477 19.1326Z" fill="#EF233C"/>
<path fill-rule="evenodd" clip-rule="evenodd" d="M3.13339 18.308C3.13339 18.4799 3.25278 18.6191 3.40006 18.6191H5.44398C6.19901 18.6191 6.83623 17.9043 6.86564 17.0239C6.89681 16.093 6.24144 15.3006 5.44398 15.3006H3.93322C3.78594 15.3006 3.66655 15.4399 3.66655 15.6117C3.66655 15.7835 3.78594 15.9228 3.93322 15.9228H5.44398C5.9395 15.9228 6.35204 16.4226 6.33272 16.9996L6.33271 16.9996C6.31447 17.5461 5.91258 17.9969 5.44398 17.9969H3.40006C3.25278 17.9969 3.13339 18.1362 3.13339 18.308Z" fill="#EF233C"/>
</svg>
