<svg width="24" height="24" viewBox="0 0 24 24" fill="none" xmlns="http://www.w3.org/2000/svg">
<path fill-rule="evenodd" clip-rule="evenodd" d="M7.67541 4.67387C7.85549 5.04689 7.69908 5.49526 7.32606 5.67534L5.73106 6.44534C4.9069 6.84277 4.36539 7.10608 4.02022 7.33845C3.87454 7.43652 3.80284 7.50351 3.76897 7.54225C3.80278 7.58103 3.87447 7.64811 4.02035 7.74637C4.36545 7.9788 4.90658 8.24193 5.73077 8.63937L8.65079 10.0494C10.5195 10.9506 11.2416 11.2799 12 11.2799C12.7584 11.2799 13.4802 10.9507 15.3489 10.0495L18.2689 8.63954C19.0931 8.2421 19.6346 7.9788 19.9797 7.74637C20.1255 7.64812 20.1972 7.58103 20.231 7.54225C20.1972 7.50351 20.1255 7.43652 19.9798 7.33845C19.6346 7.10608 19.0934 6.84291 18.2692 6.44548L16.6739 5.67534C16.3009 5.49526 16.1445 5.04689 16.3246 4.67387C16.5047 4.30085 16.953 4.14444 17.3261 4.32451L18.9733 5.1197C19.7293 5.48423 20.3712 5.79371 20.8175 6.09415C21.2632 6.39423 21.75 6.8397 21.75 7.54193V17.1749C21.75 18.2947 20.931 19.0381 19.9257 19.6395C18.9083 20.2482 17.412 20.8784 15.5217 21.6747L15.4541 21.7031C15.4013 21.7254 15.349 21.7474 15.2975 21.7691C13.8833 22.365 12.9697 22.7499 12 22.7499C11.0303 22.7499 10.1167 22.365 8.70251 21.7691C8.65101 21.7474 8.59885 21.7254 8.546 21.7032L8.47834 21.6747C6.58797 20.8784 5.09174 20.2482 4.07434 19.6395C3.06897 19.0381 2.25 18.2947 2.25 17.1749V7.54193C2.25 6.8397 2.73679 6.39423 3.18253 6.09415C3.62882 5.79371 4.27068 5.48423 5.02674 5.11969C5.04408 5.11132 5.06148 5.10293 5.07894 5.09451L6.67394 4.32451C7.04696 4.14444 7.49533 4.30085 7.67541 4.67387ZM3.75 9.32798V17.1749C3.75 17.4342 3.90403 17.7897 4.84441 18.3523C5.76065 18.9004 7.15936 19.4914 9.128 20.3207M3.75 9.32798C4.11621 9.52615 4.54863 9.73465 5.02667 9.96514L5.07887 9.99031L7.99887 11.4003C8.05614 11.4279 8.11304 11.4554 8.16891 11.4824C9.44749 12.0995 10.366 12.5428 11.25 12.7084V21.1382C10.7709 21.0067 10.1474 20.7499 9.128 20.3207M14.8719 20.3207C13.8524 20.7499 13.2291 21.0067 12.75 21.1382L14.8719 20.3207ZM12.75 21.1382V12.7084C13.634 12.5428 14.5525 12.0995 15.8311 11.4824C15.887 11.4554 15.9435 11.4281 16.0008 11.4005L18.9208 9.99048L18.9733 9.96513C19.4514 9.73464 19.8838 9.52615 20.25 9.32798V17.1749C20.25 17.4342 20.096 17.7897 19.1556 18.3523C18.2393 18.9004 16.8405 19.4915 14.8719 20.3207M20.2588 7.50142C20.2588 7.50142 20.2584 7.50507 20.2537 7.51267C20.2558 7.50527 20.2588 7.50142 20.2588 7.50142ZM3.74123 7.50142C3.74123 7.50142 3.74424 7.50527 3.74635 7.51267C3.74163 7.50507 3.74123 7.50142 3.74123 7.50142ZM5.32878 12.6913C5.51357 12.3206 5.9639 12.1699 6.3346 12.3547L8.3346 13.3517C8.70531 13.5365 8.85602 13.9868 8.67122 14.3575C8.48643 14.7282 8.0361 14.8789 7.6654 14.6941L5.6654 13.6972C5.29469 13.5124 5.14398 13.062 5.32878 12.6913Z" fill="#171823"/>
<path fill-rule="evenodd" clip-rule="evenodd" d="M12 8.5C11.8614 8.5 11.729 8.44248 11.6345 8.34116L9.63447 6.1983C9.44605 5.99643 9.45696 5.68003 9.65884 5.49161C9.86071 5.3032 10.1771 5.31411 10.3655 5.51598L11.5 6.73149L11.5 3C11.5 2.72386 11.7239 2.5 12 2.5C12.2761 2.5 12.5 2.72386 12.5 3L12.5 6.73149L13.6345 5.51598C13.8229 5.31411 14.1393 5.3032 14.3412 5.49162C14.543 5.68003 14.5539 5.99643 14.3655 6.1983L12.3655 8.34116C12.271 8.44248 12.1386 8.5 12 8.5Z" fill="#EF233C"/>
</svg>
