<svg width="25" height="24" viewBox="0 0 25 24" fill="none" xmlns="http://www.w3.org/2000/svg">
<path d="M3.5 14L3.56605 8.79305C3.5644 8.26093 3.70535 7.73808 3.97424 7.27889C4.24314 6.81971 4.63017 6.44096 5.09505 6.18205L11.0501 2.87605H11.0521C11.4951 2.62928 11.9939 2.49976 12.5011 2.49976C13.0082 2.49976 13.507 2.62928 13.9501 2.87605L19.9071 6.18305C20.3718 6.44188 20.7587 6.82047 21.0276 7.27946C21.2965 7.73846 21.4375 8.2611 21.4361 8.79305V15.207C21.4377 15.7392 21.2968 16.262 21.0279 16.7212C20.759 17.1804 20.3719 17.5591 19.9071 17.818L13.9501 21.124C13.507 21.3708 13.0082 21.5003 12.5011 21.5003C11.9939 21.5003 11.4951 21.3708 11.0521 21.124L8.5 20" stroke="white" stroke-width="1.5" stroke-linecap="round"/>
<path d="M20.8302 6.99609L12.5002 12.0001M12.5002 12.0001L4.17017 6.99609M12.5002 12.0001V21.4901" stroke="white" stroke-width="1.5"/>
<rect x="0.5" y="-0.5" width="7" height="7.20744" rx="3.5" transform="matrix(1 0 0 -1 1.5 20.3745)" stroke="#EF233C"/>
<path fill-rule="evenodd" clip-rule="evenodd" d="M4.72466 19.1326C4.82051 19.0021 4.80756 18.8057 4.69574 18.6939L4.29216 18.2903L4.71075 17.8019C4.8149 17.6804 4.8149 17.4834 4.71075 17.362C4.60661 17.2405 4.43777 17.2405 4.33363 17.362L3.71141 18.0879C3.65888 18.1492 3.63065 18.2332 3.6335 18.3198C3.63635 18.4064 3.67003 18.4877 3.72642 18.5441L4.34865 19.1663C4.46047 19.2781 4.62882 19.263 4.72466 19.1326Z" fill="#EF233C"/>
<path fill-rule="evenodd" clip-rule="evenodd" d="M3.6333 18.308C3.6333 18.4799 3.75269 18.6191 3.89997 18.6191H5.94389C6.69892 18.6191 7.33614 17.9043 7.36555 17.0239C7.39672 16.093 6.74135 15.3006 5.94389 15.3006H4.43313C4.28585 15.3006 4.16646 15.4399 4.16646 15.6117C4.16646 15.7835 4.28585 15.9228 4.43313 15.9228H5.94389C6.4394 15.9228 6.85195 16.4226 6.83262 16.9996L6.83262 16.9996C6.81438 17.5461 6.41249 17.9969 5.94389 17.9969H3.89997C3.75269 17.9969 3.6333 18.1362 3.6333 18.308Z" fill="#EF233C"/>
</svg>
