<svg width="25" height="24" viewBox="0 0 25 24" fill="none" xmlns="http://www.w3.org/2000/svg">
<path fill-rule="evenodd" clip-rule="evenodd" d="M7.7322 4.30487C7.3046 4.3514 7.05318 4.43721 6.85053 4.57231C6.64785 4.70743 6.4718 4.90664 6.26439 5.28343C6.04955 5.67371 5.83007 6.19836 5.513 6.96016L5.06989 8.02326H11.8721V4.25581H9.56977C8.744 4.25581 8.17518 4.25667 7.7322 4.30487ZM9.53487 3C8.75243 2.99999 8.11517 2.99998 7.59636 3.05643C7.05447 3.11539 6.58422 3.24056 6.15393 3.52741C5.72369 3.81424 5.42713 4.20025 5.16424 4.67783C4.91175 5.13652 4.66605 5.72688 4.36429 6.45193L3.54833 8.40959C3.51643 8.48613 3.5 8.56824 3.5 8.65116L3.5 13.2455C3.49999 14.895 3.49998 16.1993 3.64239 17.2197C3.78908 18.2708 4.09753 19.1127 4.78302 19.7735C5.46491 20.4307 6.32854 20.7236 7.40733 20.8635C8.46091 21 9.80973 21 11.5246 21H13.4762C15.1911 21 16.5399 21 17.5935 20.8635C18.6723 20.7236 19.5359 20.4307 20.2178 19.7735C20.9028 19.1127 21.2112 18.2706 21.3577 17.2197C21.5 16.1993 21.5 14.895 21.5 13.2454V8.65116C21.5 8.56824 21.4836 8.48613 21.4517 8.40959L20.6464 6.4775L20.6338 6.44733C20.3329 5.72481 20.0877 5.13597 19.8358 4.6782C19.573 4.20063 19.2764 3.81432 18.8461 3.52741C18.4157 3.24052 17.9452 3.11538 17.4033 3.05643C16.8844 2.99998 16.2472 2.99999 15.4651 3H9.53487ZM13.1279 4.25581V8.02326H19.9301L19.4871 6.96046C19.17 6.199 18.9505 5.67414 18.7356 5.28368C18.5281 4.90667 18.352 4.70736 18.1495 4.57231C17.9469 4.43725 17.6953 4.35141 17.2675 4.30488C16.8244 4.25667 16.2556 4.25581 15.4302 4.25581H13.1279ZM20.2442 9.27907H4.75581V13.1964C4.75581 14.9059 4.75725 16.1226 4.88615 17.0461C5.01217 17.9491 5.24916 18.4785 5.65456 18.8693C6.06271 19.2627 6.62108 19.4952 7.56876 19.6181C8.53223 19.7429 9.79962 19.7442 11.5707 19.7442H13.4301C15.2012 19.7442 16.4686 19.7429 17.4321 19.6181C18.3796 19.4952 18.938 19.2628 19.3461 18.8695M20.2442 9.27907V13.1964C20.2442 14.9059 20.2428 16.1226 20.1139 17.0462C19.988 17.9491 19.7511 18.4788 19.3461 18.8695" fill="white"/>
<g clip-path="url(#clip0_47_7847)">
<path fill-rule="evenodd" clip-rule="evenodd" d="M11.4097 17.1181C11.5445 16.9346 11.5263 16.6584 11.369 16.5012L10.8015 15.9336L11.3902 15.2469C11.5366 15.076 11.5366 14.799 11.3902 14.6281C11.2437 14.4573 11.0063 14.4573 10.8598 14.6281L9.98484 15.649C9.91098 15.7351 9.87127 15.8534 9.87528 15.9751C9.87929 16.0969 9.92665 16.2112 10.006 16.2905L10.881 17.1655C11.0382 17.3228 11.2749 17.3015 11.4097 17.1181Z" fill="#EF233C"/>
<path fill-rule="evenodd" clip-rule="evenodd" d="M9.875 15.9583C9.875 16.2 10.0429 16.3958 10.25 16.3958H13.1243C14.186 16.3958 15.0821 15.3907 15.1235 14.1525C15.1673 12.8435 14.2457 11.7292 13.1243 11.7292H10.9998C10.7926 11.7292 10.6248 11.9251 10.6248 12.1667C10.6248 12.4083 10.7926 12.6042 10.9998 12.6042H13.1243C13.8211 12.6042 14.4012 13.3069 14.374 14.1183L14.374 14.1184C14.3484 14.8869 13.7832 15.5208 13.1243 15.5208H10.25C10.0429 15.5208 9.875 15.7167 9.875 15.9583Z" fill="#EF233C"/>
</g>
<defs>
<clipPath id="clip0_47_7847">
<rect width="6" height="7" fill="white" transform="matrix(1 0 0 -1 9.5 18)"/>
</clipPath>
</defs>
</svg>
