<svg width="24" height="24" viewBox="0 0 24 24" fill="none" xmlns="http://www.w3.org/2000/svg">
<path fill-rule="evenodd" clip-rule="evenodd" d="M7.2322 4.30487C6.8046 4.3514 6.55318 4.43721 6.35053 4.57231C6.14785 4.70743 5.9718 4.90664 5.76439 5.28343C5.54955 5.67371 5.33007 6.19836 5.013 6.96016L4.56989 8.02326H11.3721V4.25581H9.06977C8.244 4.25581 7.67518 4.25667 7.2322 4.30487ZM9.03487 3C8.25243 2.99999 7.61517 2.99998 7.09636 3.05643C6.55447 3.11539 6.08422 3.24056 5.65393 3.52741C5.22369 3.81424 4.92713 4.20025 4.66424 4.67783C4.41175 5.13652 4.16605 5.72688 3.86429 6.45193L3.04833 8.40959C3.01643 8.48613 3 8.56824 3 8.65116L3 13.2455C2.99999 14.895 2.99998 16.1993 3.14239 17.2197C3.28908 18.2708 3.59753 19.1127 4.28302 19.7735C4.96491 20.4307 5.82854 20.7236 6.90733 20.8635C7.96091 21 9.30973 21 11.0246 21H12.9762C14.6911 21 16.0399 21 17.0935 20.8635C18.1723 20.7236 19.0359 20.4307 19.7178 19.7735C20.4028 19.1127 20.7112 18.2706 20.8577 17.2197C21 16.1993 21 14.895 21 13.2454V8.65116C21 8.56824 20.9836 8.48613 20.9517 8.40959L20.1464 6.4775L20.1338 6.44733C19.8329 5.72481 19.5877 5.13597 19.3358 4.6782C19.073 4.20063 18.7764 3.81432 18.3461 3.52741C17.9157 3.24052 17.4452 3.11538 16.9033 3.05643C16.3844 2.99998 15.7472 2.99999 14.9651 3H9.03487ZM12.6279 4.25581V8.02326H19.4301L18.9871 6.96046C18.67 6.199 18.4505 5.67414 18.2356 5.28368C18.0281 4.90667 17.852 4.70736 17.6495 4.57231C17.4469 4.43725 17.1953 4.35141 16.7675 4.30488C16.3244 4.25667 15.7556 4.25581 14.9302 4.25581H12.6279ZM19.7442 9.27907H4.25581V13.1964C4.25581 14.9059 4.25725 16.1226 4.38615 17.0461C4.51217 17.9491 4.74916 18.4785 5.15456 18.8693C5.56271 19.2627 6.12108 19.4952 7.06876 19.6181C8.03223 19.7429 9.29962 19.7442 11.0707 19.7442H12.9301C14.7012 19.7442 15.9686 19.7429 16.9321 19.6181C17.8796 19.4952 18.438 19.2628 18.8461 18.8695M19.7442 9.27907V13.1964C19.7442 14.9059 19.7428 16.1226 19.6139 17.0462C19.488 17.9491 19.2511 18.4788 18.8461 18.8695" fill="#171823"/>
<g clip-path="url(#clip0_751_2456)">
<path fill-rule="evenodd" clip-rule="evenodd" d="M10.9097 17.118C11.0445 16.9345 11.0263 16.6583 10.869 16.5011L10.3015 15.9335L10.8902 15.2468C11.0366 15.0759 11.0366 14.7989 10.8902 14.6281C10.7437 14.4572 10.5063 14.4572 10.3598 14.6281L9.48484 15.6489C9.41098 15.7351 9.37127 15.8533 9.37528 15.975C9.37929 16.0968 9.42665 16.2111 9.50595 16.2904L10.381 17.1654C10.5382 17.3227 10.7749 17.3014 10.9097 17.118Z" fill="#EF233C"/>
<path fill-rule="evenodd" clip-rule="evenodd" d="M9.375 15.9583C9.375 16.1999 9.54289 16.3958 9.75 16.3958H12.6243C13.686 16.3958 14.5821 15.3906 14.6235 14.1524C14.6673 12.8434 13.7457 11.7291 12.6243 11.7291H10.4998C10.2926 11.7291 10.1248 11.925 10.1248 12.1666C10.1248 12.4082 10.2926 12.6041 10.4998 12.6041H12.6243C13.3211 12.6041 13.9012 13.3068 13.874 14.1183L13.874 14.1183C13.8484 14.8868 13.2832 15.5208 12.6243 15.5208H9.75C9.54289 15.5208 9.375 15.7166 9.375 15.9583Z" fill="#EF233C"/>
</g>
<defs>
<clipPath id="clip0_751_2456">
<rect width="6" height="7" fill="white" transform="matrix(1 0 0 -1 9 18)"/>
</clipPath>
</defs>
</svg>
