<svg width="24" height="19" viewBox="0 0 24 19" fill="none" xmlns="http://www.w3.org/2000/svg">
<g clip-path="url(#clip0_1_10182)">
<path d="M4.36312 18.9055V17.648C4.36312 17.1658 4.07494 16.8515 3.58097 16.8515C3.33403 16.8515 3.06647 16.9353 2.88122 17.2078C2.73722 16.9772 2.53144 16.8515 2.22272 16.8515C2.01684 16.8515 1.81116 16.9143 1.64644 17.1449V16.8934H1.21425V18.9055H1.64644V17.7946C1.64644 17.4384 1.83169 17.2706 2.11987 17.2706C2.40787 17.2706 2.55206 17.4593 2.55206 17.7946V18.9055H2.98425V17.7946C2.98425 17.4384 3.18994 17.2706 3.4575 17.2706C3.74569 17.2706 3.88969 17.4593 3.88969 17.7946V18.9055H4.36312ZM10.7635 16.8934H10.0639V16.2856H9.63169V16.8934H9.24066V17.2915H9.63159V18.2138C9.63159 18.675 9.81684 18.9474 10.3108 18.9474C10.4961 18.9474 10.7017 18.8846 10.8459 18.8007L10.7224 18.4234C10.5989 18.5073 10.4549 18.5283 10.352 18.5283C10.1462 18.5283 10.0639 18.4025 10.0639 18.1928V17.2915H10.7635V16.8934ZM14.4269 16.8514C14.18 16.8514 14.0153 16.9772 13.9124 17.1449V16.8934H13.4802V18.9055H13.9124V17.7737C13.9124 17.4384 14.0564 17.2497 14.324 17.2497C14.4063 17.2497 14.5092 17.2707 14.5915 17.2916L14.715 16.8725C14.6327 16.8515 14.5092 16.8515 14.4269 16.8515V16.8514ZM8.89078 17.0611C8.68491 16.9143 8.39681 16.8515 8.08809 16.8515C7.59422 16.8515 7.26497 17.103 7.26497 17.5012C7.26497 17.8366 7.51191 18.0252 7.94409 18.0881L8.14987 18.1091C8.37628 18.1509 8.49975 18.2138 8.49975 18.3187C8.49975 18.4653 8.33512 18.5702 8.04694 18.5702C7.75884 18.5702 7.53244 18.4653 7.38834 18.3606L7.18256 18.6959C7.40897 18.8636 7.71769 18.9474 8.02631 18.9474C8.60259 18.9474 8.93194 18.675 8.93194 18.2977C8.93194 17.9414 8.66437 17.7527 8.25272 17.6899L8.04694 17.6689C7.86169 17.6479 7.71769 17.606 7.71769 17.4803C7.71769 17.3335 7.86169 17.2497 8.08809 17.2497C8.33512 17.2497 8.58206 17.3545 8.70553 17.4174L8.89078 17.0611ZM20.3747 16.8515C20.1277 16.8515 19.963 16.9772 19.8601 17.1449V16.8934H19.4279V18.9055H19.8601V17.7737C19.8601 17.4384 20.0042 17.2497 20.2717 17.2497C20.3541 17.2497 20.457 17.2707 20.5393 17.2916L20.6628 16.8725C20.5805 16.8515 20.457 16.8515 20.3747 16.8515ZM14.8591 17.8994C14.8591 18.5073 15.2707 18.9474 15.9087 18.9474C16.1968 18.9474 16.4026 18.8846 16.6084 18.7169L16.4026 18.3606C16.238 18.4863 16.0733 18.5492 15.8881 18.5492C15.5382 18.5492 15.2913 18.2977 15.2913 17.8994C15.2913 17.5222 15.5382 17.2706 15.8881 17.2497C16.0733 17.2497 16.238 17.3125 16.4026 17.4384L16.6084 17.0821C16.4026 16.9143 16.1968 16.8515 15.9087 16.8515C15.2707 16.8515 14.8591 17.2916 14.8591 17.8994ZM18.8517 17.8994V16.8934H18.4195V17.1449C18.2754 16.9563 18.0697 16.8515 17.8021 16.8515C17.2464 16.8515 16.8143 17.2916 16.8143 17.8994C16.8143 18.5073 17.2464 18.9474 17.8021 18.9474C18.0902 18.9474 18.2961 18.8427 18.4195 18.654V18.9055H18.8517V17.8994ZM17.267 17.8994C17.267 17.5431 17.4934 17.2497 17.8638 17.2497C18.2137 17.2497 18.4607 17.5222 18.4607 17.8994C18.4607 18.2558 18.2137 18.5492 17.8638 18.5492C17.4934 18.5282 17.267 18.2558 17.267 17.8994ZM12.1013 16.8515C11.5251 16.8515 11.1134 17.2706 11.1134 17.8994C11.1134 18.5283 11.525 18.9474 12.1219 18.9474C12.41 18.9474 12.6982 18.8636 12.9246 18.675L12.7187 18.3606C12.5541 18.4863 12.3483 18.5702 12.1425 18.5702C11.8749 18.5702 11.6074 18.4444 11.5456 18.088H13.0069V17.9204C13.0275 17.2706 12.6571 16.8515 12.1013 16.8515ZM12.1013 17.2287C12.3688 17.2287 12.5542 17.3965 12.5952 17.7109H11.5662C11.6074 17.4384 11.7926 17.2287 12.1013 17.2287ZM22.8237 17.8994V16.0969H22.3915V17.1449C22.2474 16.9563 22.0417 16.8515 21.7741 16.8515C21.2184 16.8515 20.7863 17.2916 20.7863 17.8994C20.7863 18.5073 21.2184 18.9474 21.7741 18.9474C22.0623 18.9474 22.2681 18.8427 22.3915 18.654V18.9055H22.8237V17.8994ZM21.2391 17.8994C21.2391 17.5431 21.4654 17.2497 21.8359 17.2497C22.1858 17.2497 22.4327 17.5222 22.4327 17.8994C22.4327 18.2558 22.1858 18.5492 21.8359 18.5492C21.4654 18.5282 21.2391 18.2558 21.2391 17.8994ZM6.79153 17.8994V16.8934H6.35934V17.1449C6.21525 16.9563 6.00947 16.8515 5.74191 16.8515C5.18625 16.8515 4.75406 17.2916 4.75406 17.8994C4.75406 18.5073 5.18625 18.9474 5.74191 18.9474C6.03009 18.9474 6.23587 18.8427 6.35934 18.654V18.9055H6.79153V17.8994ZM5.18625 17.8994C5.18625 17.5431 5.41266 17.2497 5.78306 17.2497C6.13294 17.2497 6.37997 17.5222 6.37997 17.8994C6.37997 18.2558 6.13294 18.5492 5.78306 18.5492C5.41266 18.5282 5.18625 18.2558 5.18625 17.8994Z" fill="black"/>
<path d="M8.74669 1.61377H15.2295V13.4769H8.74669V1.61377Z" fill="#FF5F00"/>
<path d="M9.15834 7.54548C9.15834 5.13516 10.2697 2.99723 11.9778 1.61385C10.7225 0.607809 9.13781 0 7.40906 0C3.31341 0 0 3.37446 0 7.54548C0 11.7164 3.31341 15.091 7.40897 15.091C9.13772 15.091 10.7224 14.4832 11.9778 13.477C10.2697 12.1146 9.15834 9.95581 9.15834 7.54548Z" fill="#EB001B"/>
<path d="M23.9762 7.54548C23.9762 11.7164 20.6628 15.091 16.5672 15.091C14.8385 15.091 13.2538 14.4832 11.9984 13.477C13.7272 12.0937 14.8179 9.95581 14.8179 7.54548C14.8179 5.13516 13.7065 2.99723 11.9984 1.61385C13.2537 0.607809 14.8385 0 16.5672 0C20.6628 0 23.9762 3.39546 23.9762 7.54548Z" fill="#F79E1B"/>
</g>
<defs>
<clipPath id="clip0_1_10182">
<rect width="24" height="19" fill="white"/>
</clipPath>
</defs>
</svg>
