<svg width="22" height="25" viewBox="0 0 22 25" fill="none" xmlns="http://www.w3.org/2000/svg">
<g clip-path="url(#clip0_1_10231)">
<path d="M18.6629 1.94602C17.4654 0.631286 15.3008 0.067627 12.5317 0.067627H4.49479C4.22081 0.0676367 3.95582 0.161794 3.74746 0.333171C3.5391 0.504548 3.40104 0.741902 3.3581 1.00256L0.01169 21.4468C-0.0548257 21.85 0.269245 22.2151 0.693432 22.2151H5.65512L6.90121 14.6016L6.86254 14.84C6.95132 14.3018 7.42913 13.9049 7.99494 13.9049H10.3527C14.9846 13.9049 18.6114 12.0926 19.6708 6.85016C19.7023 6.69511 19.7295 6.5442 19.7531 6.39677C19.6194 6.32855 19.6194 6.32855 19.7531 6.39677C20.0686 4.4591 19.7509 3.14014 18.6629 1.94602Z" fill="#27346A"/>
<path d="M8.79975 5.69875C8.93539 5.63654 9.08375 5.60429 9.23399 5.60438H15.5348C16.2809 5.60438 16.9768 5.65115 17.6127 5.74975C17.7907 5.77708 17.9677 5.80971 18.1436 5.84759C18.3928 5.90057 18.6392 5.96542 18.8818 6.04188C19.1944 6.14246 19.4856 6.2596 19.7532 6.39677C20.0686 4.45836 19.7509 3.14014 18.6629 1.94602C17.4647 0.631286 15.3008 0.067627 12.5317 0.067627H4.4941C3.92821 0.067627 3.44678 0.464481 3.3581 1.00256L0.0116904 21.4461C-0.0548252 21.8499 0.269245 22.2145 0.692745 22.2145H5.65512L8.24038 6.42226C8.2658 6.26704 8.32999 6.12009 8.42743 5.99405C8.52487 5.86802 8.65264 5.76668 8.79975 5.69875Z" fill="#27346A"/>
<path d="M19.6708 6.85012C18.6114 12.0918 14.9847 13.9048 10.3527 13.9048H7.99425C7.42843 13.9048 6.95053 14.3018 6.86262 14.8399L5.31239 24.3064C5.25447 24.6592 5.53772 24.9789 5.90828 24.9789H10.0909C10.3305 24.9789 10.5622 24.8965 10.7443 24.7465C10.9265 24.5966 11.0471 24.389 11.0846 24.161L11.1253 23.9558L11.9136 19.1432L11.9644 18.8772C12.0018 18.6492 12.1225 18.4417 12.3046 18.2917C12.4867 18.1418 12.7184 18.0594 12.958 18.0593H13.584C17.6357 18.0593 20.8082 16.4737 21.7353 11.888C22.1223 9.97156 21.9221 8.37156 20.8984 7.24772C20.5879 6.90732 20.2023 6.6262 19.7531 6.39673C19.7288 6.54491 19.7024 6.69507 19.6708 6.85012Z" fill="#2790C3"/>
<path d="M18.6443 5.97089C18.4791 5.92442 18.3124 5.88329 18.1443 5.84755C17.9684 5.81028 17.7914 5.77787 17.6135 5.75036C16.9769 5.6511 16.2815 5.60425 15.5347 5.60425H9.23467C9.08431 5.60392 8.93584 5.63644 8.80042 5.69937C8.65315 5.76709 8.52524 5.86837 8.42775 5.99444C8.33027 6.1205 8.26616 6.26756 8.24097 6.42288L6.90189 14.6015L6.86322 14.8399C6.95131 14.3018 7.42912 13.9048 7.99502 13.9048H10.3535C14.9853 13.9048 18.6121 12.0926 19.6715 6.85011C19.7031 6.69506 19.7295 6.54481 19.7538 6.39672C19.4855 6.26029 19.1952 6.14241 18.8824 6.0425C18.8035 6.0173 18.7242 5.99342 18.6444 5.97089" fill="#1F264F"/>
</g>
<defs>
<clipPath id="clip0_1_10231">
<rect width="22" height="25" fill="white"/>
</clipPath>
</defs>
</svg>
