<svg width="24" height="24" viewBox="0 0 24 24" fill="none" xmlns="http://www.w3.org/2000/svg">
<path d="M11.5 22C7.493 22 5.49 22 4.245 20.535C3 19.072 3 16.714 3 12C3 7.286 3 4.929 4.245 3.464C5.49 1.999 7.493 2 11.5 2C15.507 2 17.51 2 18.755 3.464C19.757 4.644 19.953 6.401 19.991 9.5M8 8H15M8 13H11" stroke="white" stroke-width="1.5" stroke-linecap="round" stroke-linejoin="round"/>
<path d="M19.6099 18.105C20.1864 17.6859 20.6155 17.0951 20.8356 16.4173C21.0557 15.7394 21.0555 15.0092 20.8351 14.3314C20.6148 13.6536 20.1855 13.063 19.6088 12.6442C19.0321 12.2254 18.3376 11.9999 17.6249 12H17.3739C16.6613 12.0001 15.9669 12.2257 15.3904 12.6446C14.8139 13.0635 14.3848 13.6541 14.1645 14.3319C13.9443 15.0096 13.9442 15.7397 14.1643 16.4175C14.3844 17.0953 14.8135 17.686 15.3899 18.105M15.3899 18.105C15.966 18.5251 16.6609 18.751 17.3739 18.75H17.6239C18.3369 18.751 19.0318 18.5251 19.6079 18.105L20.1909 19.94C20.4129 20.64 20.5249 20.99 20.4939 21.208C20.4309 21.662 20.0609 21.998 19.6239 22C19.4139 22 19.0999 21.836 18.4709 21.506C18.2009 21.364 18.0669 21.294 17.9289 21.252C17.6484 21.1681 17.3494 21.1681 17.0689 21.252C16.9309 21.294 16.7959 21.364 16.5269 21.506C15.8979 21.836 15.5839 22.001 15.3739 22C14.9369 21.998 14.5669 21.662 14.5039 21.208C14.4739 20.99 14.5839 20.64 14.8069 19.94L15.3899 18.105Z" stroke="#EF233C" stroke-width="1.5" stroke-linecap="round" stroke-linejoin="round"/>
</svg>
