<svg width="24" height="24" viewBox="0 0 24 24" fill="none" xmlns="http://www.w3.org/2000/svg">
<path d="M11.5 22C7.493 22 5.49 22 4.245 20.535C3 19.072 3 16.714 3 12C3 7.286 3 4.929 4.245 3.464C5.49 1.999 7.493 2 11.5 2C15.507 2 17.51 2 18.755 3.464C19.757 4.644 19.953 6.401 19.991 9.5M8 8H15M8 13H11" stroke="#171823" stroke-width="1.5" stroke-linecap="round" stroke-linejoin="round"/>
<path d="M19.61 18.105C20.1865 17.6859 20.6156 17.0951 20.8357 16.4173C21.0558 15.7394 21.0556 15.0092 20.8353 14.3314C20.6149 13.6536 20.1856 13.063 19.6089 12.6442C19.0322 12.2254 18.3377 11.9999 17.625 12H17.374C16.6614 12.0001 15.9671 12.2257 15.3905 12.6446C14.814 13.0635 14.3849 13.6541 14.1646 14.3319C13.9444 15.0096 13.9443 15.7397 14.1644 16.4175C14.3846 17.0953 14.8136 17.686 15.39 18.105M15.39 18.105C15.9662 18.5251 16.661 18.751 17.374 18.75H17.624C18.337 18.751 19.0319 18.5251 19.608 18.105L20.191 19.94C20.413 20.64 20.525 20.99 20.494 21.208C20.431 21.662 20.061 21.998 19.624 22C19.414 22 19.1 21.836 18.471 21.506C18.201 21.364 18.067 21.294 17.929 21.252C17.6485 21.1681 17.3495 21.1681 17.069 21.252C16.931 21.294 16.796 21.364 16.527 21.506C15.898 21.836 15.584 22.001 15.374 22C14.937 21.998 14.567 21.662 14.504 21.208C14.474 20.99 14.584 20.64 14.807 19.94L15.39 18.105Z" stroke="#EF233C" stroke-width="1.5" stroke-linecap="round" stroke-linejoin="round"/>
</svg>
