<svg width="24" height="25" viewBox="0 0 24 25" fill="none" xmlns="http://www.w3.org/2000/svg">
<path d="M13.25 9.5C13.25 10.19 12.69 10.75 12 10.75V12.25C12.7294 12.25 13.4288 11.9603 13.9446 11.4445C14.4603 10.9288 14.75 10.2293 14.75 9.5H13.25ZM12 10.75C11.31 10.75 10.75 10.19 10.75 9.5H9.25002C9.25002 10.2293 9.53975 10.9288 10.0555 11.4445C10.5712 11.9603 11.2707 12.25 12 12.25V10.75ZM10.75 9.5C10.75 8.81 11.31 8.25 12 8.25V6.75C11.2707 6.75 10.5712 7.03973 10.0555 7.55546C9.53975 8.07118 9.25002 8.77065 9.25002 9.5H10.75ZM12 8.25C12.69 8.25 13.25 8.81 13.25 9.5H14.75C14.75 8.77065 14.4603 8.07118 13.9446 7.55546C13.4288 7.03973 12.7294 6.75 12 6.75V8.25ZM5.16602 18.356L4.44702 18.142L4.33002 18.534L4.59702 18.844L5.16602 18.356ZM18.834 18.356L19.404 18.845L19.67 18.535L19.553 18.142L18.834 18.356ZM9.00002 16.25H15V14.75H9.00002V16.25ZM9.00002 14.75C7.97712 14.75 6.98153 15.0802 6.16125 15.6913C5.34096 16.3024 4.73977 17.1619 4.44702 18.142L5.88502 18.57C6.08555 17.8996 6.49695 17.3118 7.05812 16.8939C7.61929 16.4759 8.30031 16.2501 9.00002 16.25V14.75ZM12 20.75C10.8094 20.7514 9.63273 20.4944 8.5511 19.9968C7.46947 19.4993 6.50868 18.773 5.73502 17.868L4.59702 18.844C5.51148 19.913 6.64686 20.772 7.92491 21.3598C9.20295 21.9476 10.5933 22.2513 12 22.25V20.75ZM15 16.25C16.47 16.25 17.715 17.228 18.115 18.57L19.553 18.142C19.2603 17.1619 18.6591 16.3024 17.8388 15.6913C17.0185 15.0802 16.0229 14.75 15 14.75V16.25ZM18.265 17.868C17.4914 18.773 16.5306 19.4993 15.4489 19.9968C14.3673 20.4944 13.1906 20.7514 12 20.75V22.25C13.4068 22.2513 14.7971 21.9476 16.0751 21.3598C17.3532 20.772 18.4896 19.914 19.404 18.845L18.265 17.868Z" fill="#EF233C"/>
<path d="M21 12.5001C21.003 14.2869 20.4715 16.0337 19.474 17.5161C18.6514 18.7431 17.5391 19.7484 16.2355 20.4433C14.9319 21.1382 13.4772 21.5011 12 21.5001C10.5228 21.5011 9.06808 21.1382 7.76451 20.4433C6.46093 19.7484 5.34865 18.7431 4.526 17.5161C3.74273 16.3485 3.2439 15.0137 3.06951 13.6186C2.89511 12.2234 3.05 10.8069 3.52175 9.48239C3.9935 8.15793 4.769 6.9624 5.78607 5.99167C6.80314 5.02093 8.0335 4.30198 9.37851 3.89245C10.7235 3.48292 12.1458 3.39421 13.5312 3.63342C14.9167 3.87263 16.2269 4.43311 17.3567 5.26993C18.4865 6.10675 19.4046 7.19664 20.0373 8.45221C20.67 9.70779 20.9997 11.0941 21 12.5001Z" stroke="#171823" stroke-width="1.5"/>
</svg>
