<svg width="25" height="24" viewBox="0 0 25 24" fill="none" xmlns="http://www.w3.org/2000/svg">
<g id="Seller">
<path id="Vector" d="M17 6.75H20.072C20.2578 6.75018 20.4369 6.81933 20.5746 6.94403C20.7124 7.06874 20.7989 7.24013 20.8175 7.425L21.1924 11.1745C21.2366 11.6165 20.8896 12 20.4454 12C20.0597 12 19.7368 11.7077 19.6984 11.3239L19.391 8.25H17V10.5C17 10.6989 16.921 10.8897 16.7803 11.0303C16.6397 11.171 16.4489 11.25 16.25 11.25C16.0511 11.25 15.8603 11.171 15.7197 11.0303C15.579 10.8897 15.5 10.6989 15.5 10.5V8.25H9.49999V10.5C9.49999 10.6989 9.42098 10.8897 9.28032 11.0303C9.13967 11.171 8.94891 11.25 8.74999 11.25C8.55108 11.25 8.36032 11.171 8.21967 11.0303C8.07901 10.8897 7.99999 10.6989 7.99999 10.5V8.25H5.60749L4.4075 20.25H11.75C12.1642 20.25 12.5 20.5858 12.5 21C12.5 21.4142 12.1642 21.75 11.75 21.75H3.578C3.47324 21.7499 3.36967 21.7278 3.27396 21.6853C3.17824 21.6427 3.09251 21.5806 3.02227 21.5028C2.95204 21.4251 2.89887 21.3335 2.86618 21.234C2.83349 21.1345 2.82202 21.0292 2.83249 20.925L4.18249 7.425C4.20107 7.24013 4.28761 7.06874 4.42535 6.94403C4.56308 6.81933 4.74219 6.75018 4.92799 6.75H7.99999V6.2265C7.99999 3.6255 10.004 1.5 12.5 1.5C14.996 1.5 17 3.6255 17 6.2265V6.7515V6.75ZM15.5 6.75V6.2265C15.5 4.4355 14.147 3 12.5 3C10.853 3 9.49999 4.4355 9.49999 6.2265V6.7515H15.5V6.75ZM20.2205 18.09L18.5 16.371V21.75C18.5 21.9489 18.421 22.1397 18.2803 22.2803C18.1397 22.421 17.9489 22.5 17.75 22.5C17.5511 22.5 17.3603 22.421 17.2197 22.2803C17.079 22.1397 17 21.9489 17 21.75V16.371L15.281 18.09C15.2118 18.1616 15.1291 18.2188 15.0375 18.2581C14.946 18.2974 14.8476 18.3181 14.748 18.3189C14.6485 18.3198 14.5497 18.3008 14.4575 18.2631C14.3654 18.2254 14.2816 18.1697 14.2112 18.0993C14.1408 18.0289 14.0851 17.9451 14.0474 17.853C14.0097 17.7608 13.9907 17.662 13.9916 17.5625C13.9924 17.4629 14.0131 17.3645 14.0524 17.2729C14.0917 17.1814 14.1489 17.0987 14.2205 17.0295L17.2205 14.0295C17.3611 13.8889 17.5519 13.8099 17.7507 13.8099C17.9496 13.8099 18.1403 13.8889 18.281 14.0295L21.281 17.0295C21.3526 17.0987 21.4098 17.1814 21.4491 17.2729C21.4884 17.3645 21.5091 17.4629 21.5099 17.5625C21.5108 17.662 21.4918 17.7608 21.4541 17.853C21.4164 17.9451 21.3607 18.0289 21.2903 18.0993C21.2199 18.1697 21.1361 18.2254 21.044 18.2631C20.9518 18.3008 20.853 18.3198 20.7534 18.3189C20.6539 18.3181 20.5554 18.2974 20.4639 18.2581C20.3724 18.2188 20.2897 18.1616 20.2205 18.09Z" fill="#171823"/>
<g id="Mask group">
<mask id="mask0_1_9701" style="mask-type:alpha" maskUnits="userSpaceOnUse" x="2" y="1" width="20" height="22">
<path id="Vector_2" d="M17 6.75H20.072C20.2578 6.75018 20.4369 6.81933 20.5746 6.94403C20.7124 7.06874 20.7989 7.24013 20.8175 7.425L21.1924 11.1745C21.2366 11.6165 20.8896 12 20.4454 12C20.0597 12 19.7368 11.7077 19.6984 11.3239L19.391 8.25H17V10.5C17 10.6989 16.921 10.8897 16.7803 11.0303C16.6397 11.171 16.4489 11.25 16.25 11.25C16.0511 11.25 15.8603 11.171 15.7197 11.0303C15.579 10.8897 15.5 10.6989 15.5 10.5V8.25H9.49999V10.5C9.49999 10.6989 9.42098 10.8897 9.28032 11.0303C9.13967 11.171 8.94891 11.25 8.74999 11.25C8.55108 11.25 8.36032 11.171 8.21967 11.0303C8.07901 10.8897 7.99999 10.6989 7.99999 10.5V8.25H5.60749L4.4075 20.25H11.75C12.1642 20.25 12.5 20.5858 12.5 21C12.5 21.4142 12.1642 21.75 11.75 21.75H3.578C3.47324 21.7499 3.36967 21.7278 3.27396 21.6853C3.17824 21.6427 3.09251 21.5806 3.02227 21.5028C2.95204 21.4251 2.89887 21.3335 2.86618 21.234C2.83349 21.1345 2.82202 21.0292 2.83249 20.925L4.18249 7.425C4.20107 7.24013 4.28761 7.06874 4.42535 6.94403C4.56308 6.81933 4.74219 6.75018 4.92799 6.75H7.99999V6.2265C7.99999 3.6255 10.004 1.5 12.5 1.5C14.996 1.5 17 3.6255 17 6.2265V6.7515V6.75ZM15.5 6.75V6.2265C15.5 4.4355 14.147 3 12.5 3C10.853 3 9.49999 4.4355 9.49999 6.2265V6.7515H15.5V6.75ZM20.2205 18.09L18.5 16.371V21.75C18.5 21.9489 18.421 22.1397 18.2803 22.2803C18.1397 22.421 17.9489 22.5 17.75 22.5C17.5511 22.5 17.3603 22.421 17.2197 22.2803C17.079 22.1397 17 21.9489 17 21.75V16.371L15.281 18.09C15.2118 18.1616 15.1291 18.2188 15.0375 18.2581C14.946 18.2974 14.8476 18.3181 14.748 18.3189C14.6485 18.3198 14.5497 18.3008 14.4575 18.2631C14.3654 18.2254 14.2816 18.1697 14.2112 18.0993C14.1408 18.0289 14.0851 17.9451 14.0474 17.853C14.0097 17.7608 13.9907 17.662 13.9916 17.5625C13.9924 17.4629 14.0131 17.3645 14.0524 17.2729C14.0917 17.1814 14.1489 17.0987 14.2205 17.0295L17.2205 14.0295C17.3611 13.8889 17.5519 13.8099 17.7507 13.8099C17.9496 13.8099 18.1403 13.8889 18.281 14.0295L21.281 17.0295C21.3526 17.0987 21.4098 17.1814 21.4491 17.2729C21.4884 17.3645 21.5091 17.4629 21.5099 17.5625C21.5108 17.662 21.4918 17.7608 21.4541 17.853C21.4164 17.9451 21.3607 18.0289 21.2903 18.0993C21.2199 18.1697 21.1361 18.2254 21.044 18.2631C20.9518 18.3008 20.853 18.3198 20.7534 18.3189C20.6539 18.3181 20.5554 18.2974 20.4639 18.2581C20.3724 18.2188 20.2897 18.1616 20.2205 18.09Z" fill="black"/>
</mask>
<g mask="url(#mask0_1_9701)">
<rect id="Rectangle 1111" x="13.5" y="13" width="9" height="10" fill="#EF233C"/>
</g>
</g>
</g>
</svg>
