<svg width="24" height="24" viewBox="0 0 24 24" fill="none" xmlns="http://www.w3.org/2000/svg">
<path d="M19.9 2.30704C19.8646 2.21644 19.8028 2.13861 19.7225 2.08374C19.6422 2.02887 19.5472 1.99951 19.45 1.99951C19.3527 1.99951 19.2577 2.02887 19.1775 2.08374C19.0972 2.13861 19.0353 2.21644 19 2.30704L18.57 3.40204C18.5459 3.46393 18.5093 3.5202 18.4625 3.56734C18.4157 3.61448 18.3597 3.65148 18.298 3.67604L17.207 4.10804C17.1166 4.14403 17.0392 4.2063 16.9846 4.28679C16.93 4.36728 16.9008 4.46229 16.9008 4.55954C16.9008 4.6568 16.93 4.75181 16.9846 4.8323C17.0392 4.91279 17.1166 4.97506 17.207 5.01104L18.298 5.44304C18.3597 5.46729 18.4158 5.50406 18.4626 5.55105C18.5094 5.59804 18.546 5.65422 18.57 5.71604L19 6.81004C19.162 7.22004 19.74 7.22004 19.9 6.81004L20.33 5.71504C20.3543 5.65324 20.3911 5.59711 20.4381 5.55014C20.485 5.50318 20.5412 5.46638 20.603 5.44204L21.694 5.01004C21.7843 4.97406 21.8618 4.91179 21.9164 4.8313C21.971 4.75081 22.0001 4.65579 22.0001 4.55854C22.0001 4.46129 21.971 4.36628 21.9164 4.28579C21.8618 4.2053 21.7843 4.14303 21.694 4.10704L20.603 3.67504C20.5411 3.6506 20.4849 3.61364 20.4379 3.5665C20.3909 3.51936 20.3542 3.46303 20.33 3.40104L19.9 2.30704ZM16.033 8.13004C15.9976 8.03944 15.9358 7.96161 15.8555 7.90674C15.7752 7.85187 15.6802 7.82251 15.583 7.82251C15.4857 7.82251 15.3907 7.85187 15.3104 7.90674C15.2302 7.96161 15.1683 8.03944 15.133 8.13004L14.976 8.52904C14.9517 8.59075 14.9151 8.64682 14.8683 8.69378C14.8215 8.74074 14.7656 8.77759 14.704 8.80204L14.306 8.96004C14.2156 8.99603 14.1382 9.0583 14.0836 9.13879C14.029 9.21928 13.9998 9.31429 13.9998 9.41154C13.9998 9.50879 14.029 9.60381 14.0836 9.6843C14.1382 9.76479 14.2156 9.82706 14.306 9.86304L14.704 10.02C14.829 10.07 14.927 10.168 14.976 10.294L15.133 10.693C15.294 11.103 15.872 11.103 16.033 10.693L16.19 10.293C16.2142 10.2313 16.2508 10.1753 16.2976 10.1283C16.3444 10.0813 16.4004 10.0445 16.462 10.02L16.86 9.86304C16.9503 9.82706 17.0278 9.76479 17.0824 9.6843C17.137 9.60381 17.1661 9.50879 17.1661 9.41154C17.1661 9.31429 17.137 9.21928 17.0824 9.13879C17.0278 9.0583 16.9503 8.99603 16.86 8.96004L16.462 8.80204C16.4004 8.77759 16.3444 8.74074 16.2976 8.69378C16.2508 8.64682 16.2142 8.59075 16.19 8.52904L16.033 8.13004Z" stroke="#EF233C"/>
<path d="M21.25 12C21.25 14.4533 20.2754 16.806 18.5407 18.5407C16.806 20.2754 14.4533 21.25 12 21.25V22.75C17.937 22.75 22.75 17.937 22.75 12H21.25ZM12 21.25C9.54675 21.25 7.19397 20.2754 5.45926 18.5407C3.72455 16.806 2.75 14.4533 2.75 12H1.25C1.25 17.937 6.063 22.75 12 22.75V21.25ZM2.75 12C2.75 9.54675 3.72455 7.19397 5.45926 5.45926C7.19397 3.72455 9.54675 2.75 12 2.75V1.25C6.063 1.25 1.25 6.063 1.25 12H2.75ZM15.5 14.25C13.975 14.25 12.5125 13.6442 11.4341 12.5659C10.3558 11.4875 9.75 10.025 9.75 8.5H8.25C8.25 10.4228 9.01384 12.2669 10.3735 13.6265C11.7331 14.9862 13.5772 15.75 15.5 15.75V14.25ZM20.425 11.469C19.9136 12.3179 19.1913 13.0201 18.3284 13.5074C17.4654 13.9947 16.4911 14.2505 15.5 14.25V15.75C16.7494 15.7507 17.9778 15.4283 19.0659 14.8141C20.154 14.2 21.0648 13.315 21.71 12.245L20.425 11.469ZM9.75 8.5C9.74957 7.50897 10.0054 6.53467 10.4927 5.67171C10.98 4.80875 11.6822 4.08647 12.531 3.575L11.755 2.291C10.6851 2.93599 9.80011 3.84665 9.18597 4.93457C8.57184 6.02249 8.24941 7.25071 8.25 8.5H9.75ZM12 2.75C11.8986 2.74761 11.8022 2.70519 11.732 2.632C11.6891 2.59023 11.6604 2.536 11.65 2.477C11.646 2.446 11.648 2.356 11.755 2.291L12.531 3.575C13.034 3.271 13.196 2.714 13.137 2.276C13.075 1.821 12.717 1.25 12 1.25V2.75ZM21.71 12.245C21.644 12.352 21.554 12.354 21.523 12.35C21.464 12.3396 21.4098 12.3109 21.368 12.268C21.2948 12.1978 21.2524 12.1014 21.25 12H22.75C22.75 11.283 22.179 10.925 21.724 10.863C21.286 10.804 20.729 10.966 20.425 11.469L21.71 12.245Z" fill="#171823"/>
</svg>
