<svg width="25" height="24" viewBox="0 0 25 24" fill="none" xmlns="http://www.w3.org/2000/svg">
<path d="M17.0001 6.75H20.0721C20.2579 6.75018 20.437 6.81933 20.5748 6.94403C20.7125 7.06874 20.799 7.24013 20.8176 7.425L21.1926 11.1745C21.2368 11.6165 20.8897 12 20.4455 12C20.0598 12 19.7369 11.7077 19.6985 11.3239L19.3911 8.25H17.0001V10.5C17.0001 10.6989 16.9211 10.8897 16.7804 11.0303C16.6398 11.171 16.449 11.25 16.2501 11.25C16.0512 11.25 15.8604 11.171 15.7198 11.0303C15.5791 10.8897 15.5001 10.6989 15.5001 10.5V8.25H9.50012V10.5C9.50012 10.6989 9.4211 10.8897 9.28045 11.0303C9.13979 11.171 8.94903 11.25 8.75012 11.25C8.5512 11.25 8.36044 11.171 8.21979 11.0303C8.07913 10.8897 8.00012 10.6989 8.00012 10.5V8.25H5.60762L4.40762 20.25H11.7501C12.1643 20.25 12.5001 20.5858 12.5001 21C12.5001 21.4142 12.1643 21.75 11.7501 21.75H3.57812C3.47336 21.7499 3.36979 21.7278 3.27408 21.6853C3.17836 21.6427 3.09263 21.5806 3.02239 21.5028C2.95216 21.4251 2.89899 21.3335 2.8663 21.234C2.83362 21.1345 2.82214 21.0292 2.83262 20.925L4.18262 7.425C4.2012 7.24013 4.28774 7.06874 4.42547 6.94403C4.5632 6.81933 4.74232 6.75018 4.92812 6.75H8.00012V6.2265C8.00012 3.6255 10.0041 1.5 12.5001 1.5C14.9961 1.5 17.0001 3.6255 17.0001 6.2265V6.7515V6.75ZM15.5001 6.75V6.2265C15.5001 4.4355 14.1471 3 12.5001 3C10.8531 3 9.50012 4.4355 9.50012 6.2265V6.7515H15.5001V6.75ZM20.2206 18.09L18.5001 16.371V21.75C18.5001 21.9489 18.4211 22.1397 18.2804 22.2803C18.1398 22.421 17.949 22.5 17.7501 22.5C17.5512 22.5 17.3604 22.421 17.2198 22.2803C17.0791 22.1397 17.0001 21.9489 17.0001 21.75V16.371L15.2811 18.09C15.2119 18.1616 15.1292 18.2188 15.0377 18.2581C14.9462 18.2974 14.8478 18.3181 14.7482 18.3189C14.6486 18.3198 14.5498 18.3008 14.4577 18.2631C14.3655 18.2254 14.2817 18.1697 14.2113 18.0993C14.1409 18.0289 14.0852 17.9451 14.0475 17.853C14.0098 17.7608 13.9908 17.662 13.9917 17.5625C13.9925 17.4629 14.0132 17.3645 14.0525 17.2729C14.0918 17.1814 14.149 17.0987 14.2206 17.0295L17.2206 14.0295C17.3613 13.8889 17.552 13.8099 17.7509 13.8099C17.9497 13.8099 18.1405 13.8889 18.2811 14.0295L21.2811 17.0295C21.3527 17.0987 21.4099 17.1814 21.4492 17.2729C21.4885 17.3645 21.5092 17.4629 21.5101 17.5625C21.5109 17.662 21.4919 17.7608 21.4542 17.853C21.4165 17.9451 21.3608 18.0289 21.2904 18.0993C21.22 18.1697 21.1363 18.2254 21.0441 18.2631C20.9519 18.3008 20.8531 18.3198 20.7536 18.3189C20.654 18.3181 20.5556 18.2974 20.4641 18.2581C20.3726 18.2188 20.2898 18.1616 20.2206 18.09Z" fill="white"/>
<mask id="mask0_47_6837" style="mask-type:alpha" maskUnits="userSpaceOnUse" x="2" y="1" width="20" height="22">
<path d="M16.9999 6.75H20.0719C20.2577 6.75018 20.4368 6.81933 20.5745 6.94403C20.7123 7.06874 20.7988 7.24013 20.8174 7.425L21.1923 11.1745C21.2365 11.6165 20.8895 12 20.4453 12C20.0596 12 19.7366 11.7077 19.6983 11.3239L19.3909 8.25H16.9999V10.5C16.9999 10.6989 16.9209 10.8897 16.7802 11.0303C16.6396 11.171 16.4488 11.25 16.2499 11.25C16.051 11.25 15.8602 11.171 15.7195 11.0303C15.5789 10.8897 15.4999 10.6989 15.4999 10.5V8.25H9.49987V10.5C9.49987 10.6989 9.42086 10.8897 9.2802 11.0303C9.13955 11.171 8.94878 11.25 8.74987 11.25C8.55096 11.25 8.3602 11.171 8.21954 11.0303C8.07889 10.8897 7.99987 10.6989 7.99987 10.5V8.25H5.60737L4.40737 20.25H11.7499C12.1641 20.25 12.4999 20.5858 12.4999 21C12.4999 21.4142 12.1641 21.75 11.7499 21.75H3.57787C3.47312 21.7499 3.36955 21.7278 3.27383 21.6853C3.17812 21.6427 3.09238 21.5806 3.02215 21.5028C2.95192 21.4251 2.89874 21.3335 2.86606 21.234C2.83337 21.1345 2.8219 21.0292 2.83237 20.925L4.18237 7.425C4.20095 7.24013 4.28749 7.06874 4.42522 6.94403C4.56296 6.81933 4.74207 6.75018 4.92787 6.75H7.99987V6.2265C7.99987 3.6255 10.0039 1.5 12.4999 1.5C14.9959 1.5 16.9999 3.6255 16.9999 6.2265V6.7515V6.75ZM15.4999 6.75V6.2265C15.4999 4.4355 14.1469 3 12.4999 3C10.8529 3 9.49987 4.4355 9.49987 6.2265V6.7515H15.4999V6.75ZM20.2204 18.09L18.4999 16.371V21.75C18.4999 21.9489 18.4209 22.1397 18.2802 22.2803C18.1396 22.421 17.9488 22.5 17.7499 22.5C17.551 22.5 17.3602 22.421 17.2195 22.2803C17.0789 22.1397 16.9999 21.9489 16.9999 21.75V16.371L15.2809 18.09C15.2117 18.1616 15.1289 18.2188 15.0374 18.2581C14.9459 18.2974 14.8475 18.3181 14.7479 18.3189C14.6483 18.3198 14.5496 18.3008 14.4574 18.2631C14.3652 18.2254 14.2815 18.1697 14.2111 18.0993C14.1407 18.0289 14.085 17.9451 14.0473 17.853C14.0095 17.7608 13.9906 17.662 13.9914 17.5625C13.9923 17.4629 14.013 17.3645 14.0523 17.2729C14.0916 17.1814 14.1487 17.0987 14.2204 17.0295L17.2204 14.0295C17.361 13.8889 17.5517 13.8099 17.7506 13.8099C17.9495 13.8099 18.1402 13.8889 18.2809 14.0295L21.2809 17.0295C21.3525 17.0987 21.4096 17.1814 21.4489 17.2729C21.4883 17.3645 21.5089 17.4629 21.5098 17.5625C21.5107 17.662 21.4917 17.7608 21.454 17.853C21.4163 17.9451 21.3606 18.0289 21.2902 18.0993C21.2197 18.1697 21.136 18.2254 21.0438 18.2631C20.9517 18.3008 20.8529 18.3198 20.7533 18.3189C20.6537 18.3181 20.5553 18.2974 20.4638 18.2581C20.3723 18.2188 20.2896 18.1616 20.2204 18.09Z" fill="black"/>
</mask>
<g mask="url(#mask0_47_6837)">
<rect x="13.5" y="13" width="9" height="10" fill="#EF233C"/>
</g>
</svg>
