<svg width="20" height="21" viewBox="0 0 20 21" fill="none" xmlns="http://www.w3.org/2000/svg">
<g id="Group">
<path id="Vector" d="M11.2501 7.5C11.2501 8.19 10.6901 8.75 10.0001 8.75V10.25C10.7294 10.25 11.4289 9.96027 11.9446 9.44454C12.4603 8.92882 12.7501 8.22935 12.7501 7.5H11.2501ZM10.0001 8.75C9.31008 8.75 8.75008 8.19 8.75008 7.5H7.25008C7.25008 8.22935 7.53981 8.92882 8.05553 9.44454C8.57126 9.96027 9.27073 10.25 10.0001 10.25V8.75ZM8.75008 7.5C8.75008 6.81 9.31008 6.25 10.0001 6.25V4.75C9.27073 4.75 8.57126 5.03973 8.05553 5.55546C7.53981 6.07118 7.25008 6.77065 7.25008 7.5H8.75008ZM10.0001 6.25C10.6901 6.25 11.2501 6.81 11.2501 7.5H12.7501C12.7501 6.77065 12.4603 6.07118 11.9446 5.55546C11.4289 5.03973 10.7294 4.75 10.0001 4.75V6.25ZM3.16608 16.356L2.44708 16.142L2.33008 16.534L2.59708 16.844L3.16608 16.356ZM16.8341 16.356L17.4041 16.845L17.6701 16.535L17.5531 16.142L16.8341 16.356ZM7.00008 14.25H13.0001V12.75H7.00008V14.25ZM7.00008 12.75C5.97718 12.75 4.98159 13.0802 4.16131 13.6913C3.34102 14.3024 2.73983 15.1619 2.44708 16.142L3.88508 16.57C4.08561 15.8996 4.49701 15.3118 5.05818 14.8939C5.61936 14.4759 6.30037 14.2501 7.00008 14.25V12.75ZM10.0001 18.75C8.80949 18.7514 7.63279 18.4944 6.55116 17.9968C5.46954 17.4993 4.50874 16.773 3.73508 15.868L2.59708 16.844C3.51154 17.913 4.64692 18.772 5.92497 19.3598C7.20301 19.9476 8.59333 20.2513 10.0001 20.25V18.75ZM13.0001 14.25C14.4701 14.25 15.7151 15.228 16.1151 16.57L17.5531 16.142C17.2603 15.1619 16.6591 14.3024 15.8388 13.6913C15.0186 13.0802 14.023 12.75 13.0001 12.75V14.25ZM16.2651 15.868C15.4914 16.773 14.5306 17.4993 13.449 17.9968C12.3674 18.4944 11.1907 18.7514 10.0001 18.75V20.25C11.4068 20.2513 12.7971 19.9476 14.0752 19.3598C15.3532 18.772 16.4896 17.914 17.4041 16.845L16.2651 15.868Z" fill="#EF233C"/>
<path id="Vector_2" d="M19 10.5001C19.003 12.2869 18.4715 14.0337 17.474 15.5161C16.6514 16.7431 15.5391 17.7484 14.2355 18.4433C12.9319 19.1382 11.4772 19.5011 10 19.5001C8.52279 19.5011 7.06808 19.1382 5.76451 18.4433C4.46093 17.7484 3.34865 16.7431 2.526 15.5161C1.74273 14.3485 1.2439 13.0137 1.06951 11.6186C0.895109 10.2234 1.05 8.80686 1.52175 7.48239C1.9935 6.15793 2.769 4.9624 3.78607 3.99167C4.80314 3.02093 6.0335 2.30198 7.37851 1.89245C8.72352 1.48292 10.1458 1.39421 11.5312 1.63342C12.9167 1.87263 14.2269 2.43311 15.3567 3.26993C16.4865 4.10675 17.4046 5.19664 18.0373 6.45221C18.67 7.70779 18.9997 9.09414 19 10.5001Z" stroke="white" stroke-width="1.5"/>
</g>
</svg>
