<svg width="24" height="25" viewBox="0 0 24 25" fill="none" xmlns="http://www.w3.org/2000/svg">
<path fill-rule="evenodd" clip-rule="evenodd" d="M2.967 10.2461C3.38121 10.2461 3.717 10.5819 3.717 10.9961V15.9981C3.717 17.4343 3.71859 18.4358 3.82007 19.1914C3.91866 19.9254 4.09901 20.3141 4.37563 20.5911C4.65327 20.8686 5.04213 21.0491 5.77521 21.1478C6.5304 21.2495 7.53126 21.2511 8.967 21.2511H14.967C16.4022 21.2511 17.4031 21.2495 18.1583 21.1478C18.8918 21.049 19.2803 20.8684 19.5574 20.5911C19.8343 20.3142 20.0151 19.925 20.1138 19.1909C20.2154 18.4352 20.217 17.4338 20.217 15.9981V10.9961C20.217 10.5819 20.5528 10.2461 20.967 10.2461C21.3812 10.2461 21.717 10.5819 21.717 10.9961V16.053C21.717 17.4208 21.717 18.5235 21.6004 19.3908C21.4794 20.291 21.2205 21.0491 20.6186 21.6511C20.0166 22.2538 19.2587 22.5132 18.3585 22.6344C17.4915 22.7511 16.3893 22.7511 15.022 22.7511H8.91201C7.54423 22.7511 6.442 22.7511 5.57503 22.6344C4.67463 22.5131 3.91701 22.2538 3.31467 21.6514C2.71328 21.0494 2.45433 20.2913 2.33342 19.3911C2.21696 18.524 2.21698 17.4213 2.217 16.0529L2.217 10.9961C2.217 10.5819 2.55278 10.2461 2.967 10.2461Z" fill="#EF233C"/>
<path fill-rule="evenodd" clip-rule="evenodd" d="M12.4696 3.75398H5.46899C5.31187 3.75398 5.08175 3.75869 4.85712 3.79991C4.61183 3.84493 4.49198 3.91284 4.45399 3.95064C4.3738 4.03043 4.22422 4.28847 4.05116 4.70476C3.89739 5.07466 3.76796 5.45991 3.68328 5.71196L3.67595 5.73378L2.99292 7.71177C2.99042 7.71902 2.98781 7.72623 2.98508 7.73339C2.9224 7.89835 2.83218 8.23108 2.78323 8.58014C2.75918 8.75161 2.74764 8.90958 2.75034 9.04032C2.75167 9.10498 2.75637 9.15638 2.76255 9.1951C2.76848 9.23226 2.77438 9.24885 2.77486 9.2502C2.77489 9.25026 2.7749 9.2503 2.77486 9.2502C2.82058 9.3635 2.99325 9.60587 3.26988 9.90034C3.53137 10.1787 3.79245 10.4056 3.91695 10.4921C3.94751 10.5133 3.97645 10.5368 4.00353 10.5623C4.07302 10.6278 4.38086 10.8465 4.89046 11.0203C5.38308 11.1883 6.02287 11.2995 6.75071 11.2043C8.26469 11.0069 9.1356 9.60527 9.38116 8.71794C9.49164 8.31873 9.90482 8.08467 10.304 8.19515C10.7032 8.30563 10.9373 8.71881 10.8268 9.11802C10.7125 9.53123 10.4868 10.0685 10.1343 10.6018C10.5295 10.8798 11.1683 11.186 11.9851 11.197C12.5487 11.2047 13.1041 11.0107 13.5897 10.7335C14.0694 10.4597 14.4331 10.1318 14.6085 9.93413C14.6585 9.87075 14.8929 9.51621 15.1589 8.6877C15.2855 8.29332 15.7079 8.07626 16.1023 8.20288C16.4967 8.32951 16.7137 8.75187 16.5871 9.14625C16.3675 9.83031 16.1419 10.3103 15.9523 10.6205C16.4733 11.0225 17.4017 11.4551 18.8016 11.0717C20.6208 10.5726 21.115 9.52332 21.2475 8.9966C21.2321 8.74894 21.1425 8.28246 20.9117 7.53093C20.6641 6.72487 20.2731 5.64943 19.703 4.26733C19.6654 4.19712 19.5757 4.06215 19.4428 3.94704C19.3056 3.82827 19.1553 3.75732 18.9846 3.75382C18.659 3.74713 17.747 3.75096 16.6562 3.75553C16.483 3.75625 16.3052 3.757 16.1245 3.75772C14.8207 3.76295 13.3798 3.76701 12.4696 3.75398ZM14.8828 11.6817C15.6439 12.3229 17.076 13.0997 19.1982 12.5183C21.7231 11.8257 22.5326 10.1967 22.7344 9.22207C22.7448 9.17203 22.75 9.12107 22.75 9.06998C22.75 8.60655 22.6063 7.93945 22.3456 7.09053C22.078 6.21935 21.665 5.08855 21.0782 3.66769C21.0722 3.65304 21.0656 3.63859 21.0587 3.62436C20.9528 3.40802 20.7436 3.08914 20.4245 2.81292C20.0984 2.53069 19.6247 2.26664 19.0154 2.25414M14.8828 11.6817C14.7145 11.8035 14.5305 11.9237 14.3333 12.0362C13.6989 12.3983 12.8783 12.7093 11.9648 12.6969C10.726 12.6801 9.75162 12.1988 9.13547 11.7283C8.56217 12.2056 7.83793 12.5753 6.94497 12.6917C5.95293 12.8214 5.07983 12.6697 4.40627 12.44C3.78403 12.2277 3.29198 11.9348 3.0179 11.6932C2.7791 11.5196 2.4597 11.2287 2.17661 10.9274C1.89124 10.6236 1.54277 10.2053 1.38349 9.81065L1.38311 9.8097C1.28366 9.56228 1.25526 9.2951 1.25065 9.0712C1.24584 8.83763 1.26631 8.5961 1.29776 8.37182C1.35897 7.93534 1.47151 7.49756 1.57853 7.21216L2.25705 5.24714C2.25944 5.24002 2.26189 5.23273 2.26439 5.22529C2.34824 4.97562 2.49179 4.5482 2.66608 4.12895C2.83027 3.73399 3.07619 3.20553 3.39599 2.88732C3.75801 2.52712 4.24316 2.38753 4.58637 2.32455C4.95024 2.25777 5.29212 2.25398 5.46899 2.25398H12.4858C13.3789 2.26686 14.8078 2.26299 16.1185 2.25774C16.2986 2.25701 16.4766 2.25626 16.6509 2.25553C17.7339 2.25097 18.6694 2.24703 19.0154 2.25414M8.40603 16.9952C8.68097 16.6854 9.155 16.6571 9.46481 16.932C9.98518 17.3938 10.8848 17.743 11.967 17.743C13.0492 17.743 13.9488 17.3938 14.4692 16.932C14.779 16.6571 15.253 16.6854 15.528 16.9952C15.8029 17.305 15.7746 17.779 15.4648 18.0539C14.6172 18.8062 13.3388 19.243 11.967 19.243C10.5952 19.243 9.31681 18.8062 8.46918 18.0539C8.15937 17.779 8.13109 17.305 8.40603 16.9952Z" fill="#171823"/>
</svg>
