<svg width="24" height="25" viewBox="0 0 24 25" fill="none" xmlns="http://www.w3.org/2000/svg">
<path fill-rule="evenodd" clip-rule="evenodd" d="M2.96704 10.246C3.38126 10.246 3.71704 10.5818 3.71704 10.996V15.998C3.71704 17.4342 3.71863 18.4357 3.82012 19.1913C3.91871 19.9253 4.09906 20.314 4.37567 20.591C4.65331 20.8685 5.04217 21.049 5.77526 21.1477C6.53045 21.2494 7.5313 21.251 8.96704 21.251H14.967C16.4023 21.251 17.4031 21.2494 18.1583 21.1477C18.8918 21.0489 19.2804 20.8683 19.5574 20.591C19.8343 20.3141 20.0152 19.9249 20.1139 19.1908C20.2155 18.4352 20.217 17.4337 20.217 15.998V10.996C20.217 10.5818 20.5528 10.246 20.967 10.246C21.3813 10.246 21.717 10.5818 21.717 10.996V16.0529C21.7171 17.4208 21.7171 18.5234 21.6005 19.3907C21.4794 20.2909 21.2205 21.049 20.6187 21.651C20.0167 22.2537 19.2588 22.5131 18.3585 22.6343C17.4915 22.751 16.3893 22.751 15.022 22.751H8.91206C7.54427 22.751 6.44205 22.751 5.57508 22.6343C4.67468 22.513 3.91705 22.2537 3.31471 21.6513C2.71333 21.0493 2.45438 20.2912 2.33347 19.391C2.217 18.5239 2.21702 17.4212 2.21704 16.0529L2.21704 10.996C2.21704 10.5818 2.55283 10.246 2.96704 10.246Z" fill="#EF233C"/>
<path fill-rule="evenodd" clip-rule="evenodd" d="M12.4697 3.75399H5.46904C5.31191 3.75399 5.0818 3.7587 4.85717 3.79993C4.61187 3.84494 4.49202 3.91286 4.45404 3.95065C4.37385 4.03044 4.22426 4.28849 4.05121 4.70477C3.89743 5.07467 3.768 5.45993 3.68332 5.71197L3.67599 5.73379L2.99297 7.71179C2.99046 7.71903 2.98785 7.72624 2.98513 7.73341C2.92245 7.89836 2.83222 8.23109 2.78327 8.58016C2.75923 8.75162 2.74769 8.9096 2.75038 9.04034C2.75171 9.105 2.75641 9.1564 2.7626 9.19512C2.76853 9.23228 2.77443 9.24887 2.77491 9.25022C2.77493 9.25028 2.77494 9.25031 2.77491 9.25022C2.82063 9.36352 2.99329 9.60589 3.26992 9.90036C3.53142 10.1787 3.7925 10.4056 3.91699 10.4921C3.94756 10.5133 3.9765 10.5368 4.00357 10.5623C4.07307 10.6279 4.38091 10.8465 4.89051 11.0203C5.38313 11.1883 6.02292 11.2995 6.75076 11.2043C8.26474 11.0069 9.13565 9.60529 9.38121 8.71796C9.49169 8.31875 9.90487 8.08469 10.3041 8.19516C10.7033 8.30564 10.9373 8.71882 10.8269 9.11803C10.7125 9.53125 10.4869 10.0685 10.1343 10.6018C10.5296 10.8799 11.1683 11.186 11.9852 11.1971C12.5487 11.2047 13.1041 11.0107 13.5898 10.7335C14.0694 10.4597 14.4332 10.1319 14.6085 9.93414C14.6585 9.87077 14.8929 9.51622 15.1589 8.68772C15.2856 8.29334 15.7079 8.07627 16.1023 8.2029C16.4967 8.32952 16.7138 8.75189 16.5871 9.14627C16.3675 9.83033 16.1419 10.3103 15.9524 10.6205C16.4733 11.0226 17.4017 11.4551 18.8016 11.0717C20.6209 10.5727 21.1151 9.52334 21.2476 8.99661C21.2322 8.74895 21.1425 8.28247 20.9117 7.53094C20.6642 6.72488 20.2731 5.64945 19.703 4.26734C19.6654 4.19713 19.5758 4.06216 19.4428 3.94705C19.3056 3.82829 19.1554 3.75734 18.9847 3.75384C18.6591 3.74715 17.747 3.75097 16.6563 3.75554C16.483 3.75627 16.3052 3.75701 16.1245 3.75774C14.8208 3.76297 13.3798 3.76702 12.4697 3.75399ZM14.8828 11.6817C15.6439 12.3229 17.0761 13.0997 19.1982 12.5183C21.7232 11.8257 22.5326 10.1967 22.7345 9.22208C22.7448 9.17205 22.75 9.12109 22.75 9.06999C22.75 8.60657 22.6063 7.93946 22.3456 7.09055C22.078 6.21936 21.6651 5.08857 21.0782 3.6677C21.0722 3.65306 21.0657 3.6386 21.0587 3.62437C20.9529 3.40804 20.7436 3.08916 20.4245 2.81294C20.0985 2.53071 19.6247 2.26666 19.0154 2.25415M14.8828 11.6817C14.7145 11.8035 14.5305 11.9237 14.3333 12.0362C13.6989 12.3983 12.8783 12.7093 11.9649 12.6969C10.7261 12.6801 9.75166 12.1988 9.13552 11.7283C8.56222 12.2056 7.83798 12.5753 6.94501 12.6917C5.95298 12.8214 5.07988 12.6697 4.40632 12.44C3.78407 12.2278 3.29202 11.9348 3.01795 11.6932C2.77914 11.5197 2.45975 11.2287 2.17666 10.9274C1.89129 10.6236 1.54281 10.2054 1.38354 9.81066L1.38315 9.80971C1.2837 9.56229 1.25531 9.29511 1.2507 9.07121C1.24589 8.83764 1.26635 8.59612 1.29781 8.37183C1.35902 7.93535 1.47156 7.49757 1.57858 7.21217L2.25709 5.24715C2.25949 5.24003 2.26193 5.23275 2.26443 5.22531C2.34829 4.97564 2.49184 4.54821 2.66612 4.12897C2.83032 3.734 3.07623 3.20555 3.39604 2.88734C3.75806 2.52713 4.24321 2.38755 4.58641 2.32456C4.95028 2.25779 5.29216 2.25399 5.46904 2.25399H12.4859C13.379 2.26687 14.8079 2.26301 16.1185 2.25775C16.2986 2.25703 16.4767 2.25628 16.651 2.25554C17.7339 2.25098 18.6694 2.24705 19.0154 2.25415M8.40608 16.9952C8.68101 16.6854 9.15504 16.6571 9.46485 16.932C9.98523 17.3938 10.8849 17.743 11.967 17.743C13.0492 17.743 13.9489 17.3938 14.4692 16.932C14.779 16.6571 15.2531 16.6854 15.528 16.9952C15.8029 17.305 15.7747 17.779 15.4649 18.054C14.6172 18.8062 13.3389 19.243 11.967 19.243C10.5952 19.243 9.31685 18.8062 8.46923 18.054C8.15941 17.779 8.13114 17.305 8.40608 16.9952Z" fill="white"/>
</svg>
