<svg width="12" height="13" viewBox="0 0 12 13" fill="none" xmlns="http://www.w3.org/2000/svg">
<g id="Trash" clip-path="url(#clip0_772_5343)">
<path id="Vector" d="M8 1.375V2H10.625C10.7245 2 10.8198 2.03951 10.8902 2.10983C10.9605 2.18016 11 2.27554 11 2.375C11 2.47446 10.9605 2.56984 10.8902 2.64017C10.8198 2.71049 10.7245 2.75 10.625 2.75H1.375C1.27554 2.75 1.18016 2.71049 1.10983 2.64017C1.03951 2.56984 1 2.47446 1 2.375C1 2.27554 1.03951 2.18016 1.10983 2.10983C1.18016 2.03951 1.27554 2 1.375 2H4V1.375C4 0.892 4.392 0.5 4.875 0.5H7.125C7.608 0.5 8 0.892 8 1.375ZM4.75 1.375V2H7.25V1.375C7.25 1.34185 7.23683 1.31005 7.21339 1.28661C7.18995 1.26317 7.15815 1.25 7.125 1.25H4.875C4.84185 1.25 4.81005 1.26317 4.78661 1.28661C4.76317 1.31005 4.75 1.34185 4.75 1.375ZM2.4985 3.589C2.49423 3.53963 2.48021 3.4916 2.45726 3.44768C2.43431 3.40376 2.40288 3.36482 2.36479 3.33312C2.32671 3.30142 2.28271 3.27758 2.23536 3.26299C2.188 3.24839 2.13822 3.24333 2.0889 3.24808C2.03957 3.25284 1.99168 3.26733 1.94798 3.29071C1.90429 3.31408 1.86567 3.34589 1.83434 3.38429C1.80301 3.42268 1.77961 3.46691 1.76547 3.5144C1.75134 3.5619 1.74676 3.61172 1.752 3.661L2.458 10.96C2.47912 11.1763 2.58 11.3771 2.74101 11.5231C2.90202 11.6692 3.11163 11.75 3.329 11.75H8.671C8.88845 11.75 9.09812 11.6691 9.25914 11.5229C9.42016 11.3768 9.521 11.1759 9.542 10.9595L10.2485 3.661C10.258 3.56194 10.2279 3.46315 10.1646 3.38635C10.1013 3.30956 10.0101 3.26105 9.911 3.2515C9.81194 3.24195 9.71315 3.27215 9.63635 3.33544C9.55956 3.39873 9.51105 3.48994 9.5015 3.589L8.7955 10.887C8.79252 10.9179 8.77811 10.9467 8.75509 10.9676C8.73207 10.9885 8.70209 11 8.671 11H3.329C3.29791 11 3.26793 10.9885 3.24491 10.9676C3.22189 10.9467 3.20748 10.9179 3.2045 10.887L2.4985 3.589Z" fill="#8D99AF"/>
<path id="Vector_2" d="M4.60292 4.25041C4.65211 4.2475 4.70138 4.25431 4.74793 4.27046C4.79448 4.2866 4.83739 4.31176 4.87422 4.34449C4.91104 4.37723 4.94105 4.4169 4.96253 4.46124C4.98402 4.50558 4.99655 4.55372 4.99942 4.60291L5.24942 8.85291C5.25526 8.9523 5.22137 9.04993 5.15522 9.12434C5.08906 9.19874 4.99606 9.24382 4.89667 9.24966C4.79728 9.25549 4.69964 9.22161 4.62524 9.15545C4.55083 9.0893 4.50576 8.9963 4.49992 8.89691L4.24992 4.64691C4.24701 4.59772 4.25383 4.54845 4.26997 4.5019C4.28611 4.45535 4.31127 4.41243 4.34401 4.37561C4.37674 4.33879 4.41642 4.30878 4.46076 4.2873C4.5051 4.26581 4.55323 4.25328 4.60242 4.25041H4.60292ZM7.74942 4.64691C7.75526 4.54752 7.72137 4.44988 7.65522 4.37548C7.58906 4.30107 7.49606 4.25599 7.39667 4.25016C7.29728 4.24432 7.19964 4.27821 7.12524 4.34436C7.05083 4.41052 7.00576 4.50352 6.99992 4.60291L6.74992 8.85291C6.74409 8.95223 6.77795 9.0498 6.84405 9.12416C6.91016 9.19852 7.0031 9.24357 7.10242 9.24941C7.20175 9.25524 7.29932 9.22138 7.37368 9.15528C7.44803 9.08917 7.49309 8.99623 7.49892 8.89691L7.74942 4.64691Z" fill="#8D99AF"/>
</g>
<defs>
<clipPath id="clip0_772_5343">
<rect width="12" height="12" fill="white" transform="translate(0 0.5)"/>
</clipPath>
</defs>
</svg>
