<svg width="20" height="11" viewBox="0 0 20 11" fill="none" xmlns="http://www.w3.org/2000/svg">
<path d="M16.471 2.25803C16.5931 2.38007 16.5931 2.57794 16.471 2.69997L13.6712 5.49984L16.471 8.29971C16.5931 8.42175 16.5931 8.61959 16.471 8.74163C16.349 8.86367 16.1512 8.86367 16.0291 8.74163L13.0083 5.72079C12.8862 5.59875 12.8862 5.40092 13.0083 5.27888L16.0291 2.25803C16.1512 2.136 16.349 2.136 16.471 2.25803Z" fill="#8D99AF"/>
<g opacity="0.6">
<path d="M11.471 2.25803C11.5931 2.38007 11.5931 2.57794 11.471 2.69997L8.67119 5.49984L11.471 8.29971C11.5931 8.42175 11.5931 8.61959 11.471 8.74163C11.349 8.86367 11.1512 8.86367 11.0291 8.74163L8.00828 5.72079C7.88624 5.59875 7.88624 5.40092 8.00828 5.27888L11.0291 2.25803C11.1512 2.136 11.349 2.136 11.471 2.25803Z" fill="#8D99AF"/>
</g>
<g opacity="0.3">
<path d="M6.47104 2.25803C6.59308 2.38007 6.59308 2.57794 6.47104 2.69997L3.67119 5.49984L6.47104 8.29971C6.59308 8.42175 6.59308 8.61959 6.47104 8.74163C6.349 8.86367 6.15116 8.86367 6.02912 8.74163L3.00828 5.72079C2.88624 5.59875 2.88624 5.40092 3.00828 5.27888L6.02912 2.25803C6.15116 2.136 6.349 2.136 6.47104 2.25803Z" fill="#8D99AF"/>
</g>
</svg>
