<svg width="20" height="11" viewBox="0 0 20 11" fill="none" xmlns="http://www.w3.org/2000/svg">
<path d="M3.52896 8.74197C3.40692 8.61993 3.40692 8.42206 3.52896 8.30003L6.32881 5.50016L3.52896 2.70029C3.40692 2.57825 3.40692 2.38041 3.52896 2.25837C3.651 2.13633 3.84884 2.13633 3.97088 2.25837L6.99172 5.27921C7.11376 5.40125 7.11376 5.59908 6.99172 5.72112L3.97088 8.74197C3.84884 8.86401 3.651 8.86401 3.52896 8.74197Z" fill="#8D99AF"/>
<g opacity="0.6">
<path d="M8.52896 8.74197C8.40692 8.61993 8.40692 8.42206 8.52896 8.30003L11.3288 5.50016L8.52896 2.70029C8.40692 2.57825 8.40692 2.38041 8.52896 2.25837C8.651 2.13633 8.84884 2.13633 8.97088 2.25837L11.9917 5.27921C12.1138 5.40125 12.1138 5.59908 11.9917 5.72112L8.97088 8.74197C8.84884 8.86401 8.651 8.86401 8.52896 8.74197Z" fill="#8D99AF"/>
</g>
<g opacity="0.3">
<path d="M13.529 8.74197C13.4069 8.61993 13.4069 8.42206 13.529 8.30003L16.3288 5.50016L13.529 2.70029C13.4069 2.57825 13.4069 2.38041 13.529 2.25837C13.651 2.13633 13.8488 2.13633 13.9709 2.25837L16.9917 5.27921C17.1138 5.40125 17.1138 5.59908 16.9917 5.72112L13.9709 8.74197C13.8488 8.86401 13.651 8.86401 13.529 8.74197Z" fill="#8D99AF"/>
</g>
</svg>
