<svg width="12" height="12" viewBox="0 0 12 12" fill="none" xmlns="http://www.w3.org/2000/svg">
<path fill-rule="evenodd" clip-rule="evenodd" d="M8.16546 1.97197C8.07807 1.83233 7.94933 1.72342 7.79715 1.66038C7.64497 1.59735 7.47692 1.58333 7.3164 1.62028L6.17715 1.88199C6.0604 1.90882 5.93908 1.90882 5.82233 1.88199L4.68308 1.62028C4.52256 1.58333 4.35451 1.59735 4.20233 1.66038C4.05015 1.72342 3.92141 1.83233 3.83403 1.97197L3.21308 2.96301C3.14972 3.0644 3.06418 3.14994 2.9628 3.21394L1.97182 3.83493C1.83243 3.92224 1.72368 4.05079 1.66067 4.20272C1.59765 4.35465 1.58349 4.52243 1.62016 4.68277L1.88184 5.82336C1.90858 5.93992 1.90858 6.06102 1.88184 6.17758L1.62016 7.31754C1.58335 7.47797 1.59744 7.64589 1.66046 7.79795C1.72348 7.95001 1.83231 8.07866 1.97182 8.16601L2.9628 8.787C3.06418 8.85036 3.14972 8.93591 3.21371 9.03729L3.83466 10.0283C4.01334 10.3141 4.35423 10.4554 4.68308 10.38L5.82233 10.1183C5.93908 10.0915 6.0604 10.0915 6.17715 10.1183L7.31704 10.38C7.47746 10.4168 7.64537 10.4027 7.79742 10.3397C7.94947 10.2767 8.07811 10.1679 8.16546 10.0283L8.78641 9.03729C8.84977 8.93591 8.93531 8.85036 9.03668 8.787L10.0283 8.16601C10.1678 8.07853 10.2766 7.94974 10.3395 7.79756C10.4024 7.64537 10.4163 7.47736 10.3793 7.3169L10.1183 6.17758C10.0914 6.06082 10.0914 5.93949 10.1183 5.82273L10.38 4.68277C10.4168 4.5224 10.4028 4.35453 10.3399 4.20248C10.277 4.05042 10.1683 3.92174 10.0289 3.8343L9.03732 3.21331C8.93608 3.14983 8.85052 3.06426 8.78704 2.96301L8.16546 1.97197ZM7.84675 4.58709C7.88594 4.51502 7.89565 4.43056 7.87383 4.35147C7.85202 4.27239 7.80038 4.20485 7.72979 4.16307C7.6592 4.12128 7.57515 4.10851 7.49533 4.12744C7.41551 4.14637 7.34615 4.19552 7.30183 4.26455L5.64491 7.06914L4.64443 6.11104C4.61475 6.08057 4.57923 6.05638 4.54 6.03992C4.50077 6.02347 4.45863 6.01508 4.41609 6.01527C4.37355 6.01545 4.33148 6.02421 4.29239 6.041C4.25331 6.0578 4.218 6.0823 4.18859 6.11303C4.15917 6.14377 4.13625 6.18011 4.12119 6.2199C4.10612 6.25969 4.09922 6.3021 4.1009 6.34461C4.10258 6.38712 4.11281 6.42886 4.13097 6.46733C4.14913 6.50581 4.17485 6.54023 4.20659 6.56855L5.49538 7.80355C5.52987 7.83654 5.57137 7.8613 5.61678 7.876C5.66218 7.89069 5.71032 7.89494 5.7576 7.88842C5.80488 7.8819 5.85007 7.86478 5.8898 7.83835C5.92954 7.81191 5.96279 7.77684 5.98707 7.73575L7.84675 4.58709Z" fill="#EF233C"/>
</svg>
