<svg width="22" height="19" viewBox="0 0 22 19" fill="none" xmlns="http://www.w3.org/2000/svg">
<g id="Group">
<path id="Vector" d="M5 5.5H9" stroke="#EF233C" stroke-width="1.5" stroke-linecap="round" stroke-linejoin="round"/>
<path id="Vector_2" d="M19.965 6.5C19.887 4.628 19.637 3.48 18.828 2.672C17.657 1.5 15.771 1.5 12 1.5H9C5.229 1.5 3.343 1.5 2.172 2.672C1 3.843 1 5.729 1 9.5C1 13.271 1 15.157 2.172 16.328C3.343 17.5 5.229 17.5 9 17.5H12C15.771 17.5 17.657 17.5 18.828 16.328C19.637 15.52 19.888 14.372 19.965 12.5" stroke="#171823" stroke-width="1.5"/>
<path id="Vector_3" d="M16.991 9.5H17" stroke="#171823" stroke-width="2" stroke-linecap="round" stroke-linejoin="round"/>
<path id="Vector_4" d="M19.833 6.5H17.231C15.446 6.5 14 7.843 14 9.5C14 11.157 15.447 12.5 17.23 12.5H19.833C19.917 12.5 19.958 12.5 19.993 12.498C20.533 12.465 20.963 12.066 20.998 11.565C21 11.533 21 11.494 21 11.417V7.583C21 7.506 21 7.467 20.998 7.435C20.962 6.934 20.533 6.535 19.993 6.502C19.959 6.5 19.917 6.5 19.833 6.5Z" stroke="#EF233C" stroke-width="1.5"/>
</g>
</svg>
